<svg width="173" height="100" viewBox="0 0 173 100" fill="none" xmlns="http://www.w3.org/2000/svg">
<g clip-path="url(#clip0_1331_25039)">
<path d="M55.792 30.3276V35.5462H39.807L33.5137 44.0027H39.895V79.8272H47.4894V44.0027H55.792V79.8272H63.3865V44.0027H70.1241L76.4168 35.5462H63.3865V30.83C63.3865 5.95553 78.5633 9.74703 78.5633 9.74703V1.295e-09C74.6107 1.295e-09 55.792 -0.00668067 55.792 30.3276Z" fill="#F1F0F1"/>
<path d="M117.765 30.3276C117.765 32.2972 117.765 34.0219 117.765 35.5462H133.75L140.044 44.0027H133.662V79.8272H126.068V44.0027H117.765V45.3096V79.8272H110.171V44.0027H103.433L97.1407 35.5462H110.171V30.83C110.171 5.95552 94.9941 9.74702 94.9941 9.74702V1.295e-09C98.9467 1.295e-09 117.765 -0.00668067 117.765 30.3276Z" fill="#F1F0F1"/>
<path d="M1.96046 89.3389V99.8421H0V89.3389H1.96046Z" fill="#F1F0F1"/>
<path d="M5.25111 92.0796V93.1345C5.58681 92.2525 6.04339 91.9219 6.91621 91.9219C7.61437 91.9219 8.11128 92.2213 8.3932 92.8039C8.58115 93.1976 8.63494 93.5913 8.63494 94.7564V99.8426H6.79534V94.7564C6.79534 93.8588 6.64758 93.6069 6.15082 93.6069C5.74803 93.6069 5.5063 93.7957 5.39887 94.1894C5.34508 94.3943 5.33179 94.6618 5.33179 95.2919V99.8426H3.49219V92.0796L5.25111 92.0796Z" fill="#F1F0F1"/>
<path d="M11.9655 89.6221V92.0789H13.174V93.7794H11.9655V96.6296C11.9655 97.6689 11.9789 97.7947 12.1267 97.9839C12.2476 98.1413 12.449 98.2043 12.7712 98.2043C12.9323 98.2043 12.9726 98.2043 13.268 98.1884V99.8418C12.7847 99.968 12.516 99.9995 12.1536 99.9995C11.3479 99.9995 10.7706 99.7001 10.4616 99.1335C10.22 98.6767 10.1662 98.3146 10.1662 96.8659V93.7794H9.42773V92.0789H10.2602L10.408 89.7798L11.9655 89.6221Z" fill="#F1F0F1"/>
<path d="M15.6469 96.3153V96.7249C15.6469 97.9687 15.9021 98.4886 16.5332 98.4886C17.0972 98.4886 17.3791 98.1105 17.4732 97.1657L19.1247 97.2915C18.9637 98.1891 18.789 98.6144 18.4266 99.1027C17.9565 99.7168 17.3255 100 16.493 100C14.7474 100 13.7402 98.5672 13.7402 96.0633C13.7402 93.4651 14.7608 91.9219 16.493 91.9219C17.4194 91.9219 18.2385 92.4573 18.6414 93.3393C19.0173 94.1579 19.1113 94.8035 19.1247 96.3152L15.6469 96.3153ZM17.3791 95.0715C17.3791 94.4729 17.3389 94.1579 17.245 93.906C17.1106 93.5598 16.842 93.3549 16.5197 93.3549C15.9424 93.3549 15.6873 93.8588 15.6604 95.0715H17.3791Z" fill="#F1F0F1"/>
<path d="M21.8238 92.079V93.9528C22.1595 92.5669 22.6296 91.9688 23.3815 91.9688C23.4889 91.9688 23.556 91.9843 23.7038 92.0159V94.1257C23.5829 94.1101 23.4486 94.0946 23.395 94.0946C22.4683 94.0946 22.0387 94.866 22.0387 96.4879V99.8419H20.1992V92.079H21.8238Z" fill="#F1F0F1"/>
<path d="M26.1495 92.0796V93.1345C26.4853 92.2525 26.9418 91.9219 27.8146 91.9219C28.5128 91.9219 29.0097 92.2213 29.2916 92.8039C29.4796 93.1976 29.5334 93.5913 29.5334 94.7564V99.8426H27.6938V94.7564C27.6938 93.8588 27.546 93.6069 27.0493 93.6069C26.6465 93.6069 26.4047 93.7957 26.2973 94.1894C26.2435 94.3943 26.2301 94.6618 26.2301 95.2919V99.8426H24.3906V92.0796L26.1495 92.0796Z" fill="#F1F0F1"/>
<path d="M30.824 94.3471C31.0121 92.7724 31.9655 91.9219 33.4962 91.9219C34.3287 91.9219 35.0134 92.2213 35.4298 92.7564C35.7519 93.1501 35.846 93.7015 35.846 95.0239V98.1104C35.8595 99.3702 35.8595 99.5119 35.9535 99.8425H34.248C34.154 99.4648 34.154 99.4017 34.154 98.6615C33.9392 99.0867 33.8318 99.26 33.6573 99.4489C33.3216 99.7954 32.8517 100 32.3413 100C31.2537 100 30.5957 99.1969 30.5957 97.8744C30.5957 96.7564 31.0523 95.89 31.858 95.5123C32.4353 95.2447 33.1202 95.087 34.0064 95.0239V94.7249C34.0064 93.6699 33.8452 93.3549 33.3485 93.3549C32.8517 93.3549 32.6369 93.6855 32.5696 94.536L30.824 94.3471ZM34.0065 96.1264C32.865 96.2837 32.5026 96.6459 32.5026 97.591C32.5026 98.2206 32.7174 98.5672 33.1202 98.5672C33.3619 98.5672 33.5768 98.4095 33.7513 98.0789C33.9392 97.7327 34.0065 97.3231 34.0065 96.5045V96.1264Z" fill="#F1F0F1"/>
<path d="M39.1901 89.6221V92.0789H40.3986V93.7794H39.1901V96.6296C39.1901 97.6689 39.2036 97.7947 39.3513 97.9839C39.4722 98.1413 39.6736 98.2043 39.9958 98.2043C40.1569 98.2043 40.1972 98.2043 40.4926 98.1884V99.8418C40.0093 99.968 39.7406 99.9995 39.3782 99.9995C38.5725 99.9995 37.995 99.7001 37.6862 99.1335C37.4446 98.6767 37.3908 98.3146 37.3908 96.8659V93.7794H36.6523V92.0789H37.4848L37.6326 89.7798L39.1901 89.6221Z" fill="#F1F0F1"/>
<path d="M41.2461 91.4338V89.292H43.1259V91.4338H41.2461ZM43.0991 92.0794V99.8424H41.2595V92.0794H43.0991Z" fill="#F1F0F1"/>
<path d="M49.572 95.969C49.572 98.6459 48.6723 100 46.8865 100C45.0872 100 44.1875 98.6459 44.1875 95.9846C44.1875 93.2447 45.0738 91.9219 46.9134 91.9219C48.6723 91.9219 49.572 93.2918 49.572 95.969ZM46.0942 95.9531C46.0942 97.8585 46.2957 98.4885 46.8865 98.4885C47.4639 98.4885 47.6653 97.8585 47.6653 95.969C47.6653 94.0952 47.4639 93.4336 46.8999 93.4336C46.2957 93.4336 46.0942 94.0636 46.0942 95.9531Z" fill="#F1F0F1"/>
<path d="M52.4054 92.0796V93.1345C52.7411 92.2525 53.1977 91.9219 54.0705 91.9219C54.7687 91.9219 55.2656 92.2213 55.5475 92.8039C55.7354 93.1976 55.7892 93.5913 55.7892 94.7564V99.8426H53.9496V94.7564C53.9496 93.8588 53.8019 93.6069 53.3051 93.6069C52.9023 93.6069 52.6606 93.7957 52.5532 94.1894C52.4994 94.3943 52.4859 94.6618 52.4859 95.2919V99.8426H50.6465V92.0796L52.4054 92.0796Z" fill="#F1F0F1"/>
<path d="M57.0797 94.3471C57.2678 92.7724 58.2211 91.9219 59.7518 91.9219C60.5844 91.9219 61.2691 92.2213 61.6853 92.7564C62.0078 93.1501 62.1017 93.7015 62.1017 95.0239V98.1104C62.115 99.3702 62.115 99.5119 62.2092 99.8425H60.5039C60.4097 99.4648 60.4097 99.4017 60.4097 98.6615C60.1949 99.0867 60.0875 99.26 59.913 99.4489C59.5773 99.7954 59.1072 100 58.597 100C57.5094 100 56.8516 99.1969 56.8516 97.8744C56.8516 96.7564 57.308 95.89 58.1137 95.5123C58.691 95.2447 59.3759 95.087 60.2621 95.0239V94.7249C60.2621 93.6699 60.1009 93.3549 59.6042 93.3549C59.1072 93.3549 58.8924 93.6855 58.8253 94.536L57.0797 94.3471ZM60.2621 96.1264C59.1207 96.2837 58.7583 96.6459 58.7583 97.591C58.7583 98.2206 58.9731 98.5672 59.3759 98.5672C59.6176 98.5672 59.8325 98.4095 60.007 98.0789C60.1949 97.7327 60.2621 97.3231 60.2621 96.5045V96.1264Z" fill="#F1F0F1"/>
<path d="M65.3005 89.3389V99.8421H63.4609V89.3389H65.3005Z" fill="#F1F0F1"/>
<path d="M74.6457 89.3389V91.15H71.3023V93.8899H73.8804V95.7007H71.3023V99.8421H69.3418V89.3389H74.6457Z" fill="#F1F0F1"/>
<path d="M75.3203 91.4338V89.292H77.2001V91.4338H75.3203ZM77.1734 92.0794V99.8424H75.3338V92.0794H77.1734Z" fill="#F1F0F1"/>
<path d="M80.3824 89.3389V99.8421H78.543V89.3389H80.3824Z" fill="#F1F0F1"/>
<path d="M83.5109 92.0796V93.1345C83.8331 92.284 84.3166 91.9219 85.1087 91.9219C85.9279 91.9219 86.3173 92.2525 86.5321 93.1345C86.8678 92.284 87.3513 91.9219 88.1703 91.9219C88.8685 91.9219 89.3788 92.2054 89.6339 92.7564C89.8085 93.1501 89.8622 93.6069 89.8622 94.772V99.8426H88.0225V94.9928C88.0225 93.8273 87.9286 93.6069 87.4318 93.6069C86.8813 93.6069 86.7469 93.9375 86.7469 95.3234V99.8426H84.9073V94.9297C84.8939 94.1108 84.8939 94.0792 84.8403 93.9375C84.7597 93.7171 84.5851 93.6069 84.3166 93.6069C83.7392 93.6069 83.5914 93.969 83.5914 95.3234V99.8426H81.752V92.0796L83.5109 92.0796Z" fill="#F1F0F1"/>
<path d="M99.1047 89.3389V91.15H95.7612V93.8899H98.3393V95.7007H95.7612V99.8421H93.8008V89.3389H99.1047Z" fill="#F1F0F1"/>
<path d="M101.186 96.3153V96.7249C101.186 97.9687 101.441 98.4886 102.072 98.4886C102.636 98.4886 102.918 98.1105 103.012 97.1657L104.664 97.2915C104.503 98.1891 104.328 98.6144 103.966 99.1027C103.496 99.7168 102.865 100 102.032 100C100.286 100 99.2793 98.5672 99.2793 96.0633C99.2793 93.4651 100.3 91.9219 102.032 91.9219C102.959 91.9219 103.778 92.4573 104.18 93.3393C104.556 94.1579 104.65 94.8035 104.664 96.3152L101.186 96.3153ZM102.918 95.0715C102.918 94.4729 102.878 94.1579 102.784 93.906C102.65 93.5598 102.381 93.3549 102.059 93.3549C101.482 93.3549 101.226 93.8588 101.199 95.0715H102.918Z" fill="#F1F0F1"/>
<path d="M108.829 94.4098C108.614 93.654 108.332 93.3549 107.862 93.3549C107.513 93.3549 107.285 93.6224 107.285 94.0321C107.285 94.536 107.473 94.7093 108.386 95.087C109.232 95.4336 109.42 95.5438 109.729 95.8429C110.132 96.2366 110.347 96.8036 110.347 97.4648C110.347 98.9765 109.326 100 107.836 100C107.057 100 106.385 99.7323 105.956 99.26C105.607 98.8822 105.459 98.4726 105.352 97.7011L106.815 97.4177C106.963 98.2051 107.299 98.5672 107.876 98.5672C108.332 98.5672 108.601 98.2993 108.601 97.8429C108.601 97.339 108.413 97.1498 107.54 96.8351C106.144 96.2997 105.553 95.5753 105.553 94.3943C105.553 92.9297 106.52 91.9219 107.903 91.9219C108.534 91.9219 109.084 92.1582 109.487 92.5991C109.823 92.9612 109.984 93.2763 110.145 93.9375L108.829 94.4098Z" fill="#F1F0F1"/>
<path d="M113.368 89.6221V92.0789H114.576V93.7794H113.368V96.6296C113.368 97.6689 113.381 97.7947 113.529 97.9839C113.65 98.1413 113.851 98.2043 114.174 98.2043C114.335 98.2043 114.375 98.2043 114.67 98.1884V99.8418C114.187 99.968 113.918 99.9995 113.556 99.9995C112.75 99.9995 112.173 99.7001 111.864 99.1335C111.622 98.6767 111.569 98.3146 111.569 96.8659V93.7794H110.83V92.0789H111.663L111.81 89.7798L113.368 89.6221Z" fill="#F1F0F1"/>
<path d="M115.424 91.4338V89.292H117.304V91.4338H115.424ZM117.277 92.0794V99.8424H115.437V92.0794H117.277Z" fill="#F1F0F1"/>
<path d="M119.694 92.0791L120.607 96.6613L121.534 92.0791H123.065L121.252 99.8421H119.788L117.922 92.0791H119.694Z" fill="#F1F0F1"/>
<path d="M123.496 94.3471C123.684 92.7724 124.637 91.9219 126.168 91.9219C127 91.9219 127.685 92.2213 128.101 92.7564C128.424 93.1501 128.518 93.7015 128.518 95.0239V98.1104C128.531 99.3702 128.531 99.5119 128.625 99.8425H126.92C126.826 99.4648 126.826 99.4017 126.826 98.6615C126.611 99.0867 126.503 99.26 126.329 99.4489C125.993 99.7954 125.523 100 125.013 100C123.925 100 123.268 99.1969 123.268 97.8744C123.268 96.7564 123.724 95.89 124.53 95.5123C125.107 95.2447 125.792 95.087 126.678 95.0239V94.7249C126.678 93.6699 126.517 93.3549 126.02 93.3549C125.523 93.3549 125.308 93.6855 125.241 94.536L123.496 94.3471ZM126.678 96.1264C125.537 96.2837 125.174 96.6459 125.174 97.591C125.174 98.2206 125.389 98.5672 125.792 98.5672C126.034 98.5672 126.248 98.4095 126.423 98.0789C126.611 97.7327 126.678 97.3231 126.678 96.5045V96.1264Z" fill="#F1F0F1"/>
<path d="M131.715 89.3389V99.8421H129.875V89.3389H131.715Z" fill="#F1F0F1"/>
<path d="M140.699 95.969C140.699 98.6459 139.799 100 138.013 100C136.214 100 135.314 98.6459 135.314 95.9846C135.314 93.2447 136.201 91.9219 138.04 91.9219C139.799 91.9219 140.699 93.2918 140.699 95.969ZM137.221 95.9531C137.221 97.8585 137.423 98.4885 138.013 98.4885C138.591 98.4885 138.792 97.8585 138.792 95.969C138.792 94.0952 138.591 93.4336 138.027 93.4336C137.423 93.4336 137.221 94.0636 137.221 95.9531Z" fill="#F1F0F1"/>
<path d="M145.025 92.0793V93.7798H143.856V99.8422H142.084V93.7798H141.332V92.0793H142.084C142.111 90.6462 142.191 90.1894 142.54 89.7171C142.943 89.1501 143.427 88.9297 144.232 88.9297C144.514 88.9297 144.729 88.9456 145.105 89.0084V90.6933C144.917 90.6778 144.81 90.6618 144.689 90.6618C143.964 90.6618 143.856 90.8666 143.856 92.0793H145.025Z" fill="#F1F0F1"/>
<path d="M150.302 89.3389V99.8421H148.342V89.3389H150.302Z" fill="#F1F0F1"/>
<path d="M153.593 92.0796V93.1345C153.929 92.2525 154.385 91.9219 155.258 91.9219C155.956 91.9219 156.453 92.2213 156.735 92.8039C156.923 93.1976 156.977 93.5913 156.977 94.7564V99.8426H155.137V94.7564C155.137 93.8588 154.989 93.6069 154.493 93.6069C154.09 93.6069 153.848 93.7957 153.741 94.1894C153.687 94.3943 153.673 94.6618 153.673 95.2919V99.8426H151.834V92.0796L153.593 92.0796Z" fill="#F1F0F1"/>
<path d="M163.29 89.3389V99.8421H161.585V98.5509C161.235 99.5902 160.846 99.9523 160.067 99.9523C158.724 99.9523 157.959 98.5037 157.959 95.9686C157.959 93.4332 158.765 91.969 160.148 91.969C160.792 91.969 161.155 92.205 161.477 92.8035V89.3389L163.29 89.3389ZM161.477 95.3386C161.477 94.5356 161.45 94.3623 161.316 93.9215C161.222 93.6064 160.967 93.4016 160.671 93.4016C160.094 93.4016 159.866 94.0317 159.866 95.5905C159.866 96.7716 159.879 97.0707 159.946 97.4959C160.04 98.126 160.269 98.4406 160.658 98.4406C161.235 98.4406 161.477 97.9212 161.477 96.7085V95.3386Z" fill="#F1F0F1"/>
<path d="M164.621 91.4338V89.292H166.501V91.4338H164.621ZM166.474 92.0794V99.8424H164.635V92.0794H166.474Z" fill="#F1F0F1"/>
<path d="M167.871 94.3471C168.059 92.7724 169.012 91.9219 170.543 91.9219C171.375 91.9219 172.06 92.2213 172.476 92.7564C172.799 93.1501 172.893 93.7015 172.893 95.0239V98.1104C172.906 99.3702 172.906 99.5119 173 99.8425H171.295C171.201 99.4648 171.201 99.4017 171.201 98.6615C170.986 99.0867 170.878 99.26 170.704 99.4489C170.368 99.7954 169.898 100 169.388 100C168.3 100 167.643 99.1969 167.643 97.8744C167.643 96.7564 168.099 95.89 168.905 95.5123C169.482 95.2447 170.167 95.087 171.053 95.0239V94.7249C171.053 93.6699 170.892 93.3549 170.395 93.3549C169.898 93.3549 169.683 93.6855 169.616 94.536L167.871 94.3471ZM171.053 96.1264C169.912 96.2837 169.549 96.6459 169.549 97.591C169.549 98.2206 169.764 98.5672 170.167 98.5672C170.409 98.5672 170.623 98.4095 170.798 98.0789C170.986 97.7327 171.053 97.3231 171.053 96.5045V96.1264Z" fill="#F1F0F1"/>
<path d="M85.0387 53.1309L84.5617 58.365H76.5549L76.2483 64.3585C77.3726 62.7203 78.4629 62.0811 80.1324 62.0811C81.4612 62.0811 82.8922 62.6804 83.9143 63.6392C85.4475 65.0778 86.2652 67.5151 86.2652 70.7914C86.2652 76.705 83.4373 80.1811 78.5992 80.1811C76.2483 80.1811 74.3062 79.3022 72.9093 77.544C71.819 76.1855 71.3421 74.947 71.1035 72.6693L75.635 71.7904C76.0098 74.3875 76.8616 75.4264 78.5992 75.4264C80.405 75.4264 81.4271 73.8681 81.4271 71.1112C81.4271 68.4741 80.3368 66.8358 78.5311 66.8358C77.2363 66.8358 76.589 67.3952 76.0098 68.9135L72.0916 68.0345L72.9093 53.1309L85.0387 53.1309Z" fill="#F1F0F1"/>
<path d="M101.085 53.1309L100.609 58.365H92.6018L92.2951 64.3585C93.4195 62.7203 94.5098 62.0811 96.1793 62.0811C97.5081 62.0811 98.9391 62.6804 99.9612 63.6392C101.494 65.0778 102.312 67.5151 102.312 70.7914C102.312 76.705 99.4841 80.1811 94.6461 80.1811C92.2951 80.1811 90.3531 79.3022 88.9561 77.544C87.8659 76.1855 87.3889 74.947 87.1504 72.6693L91.6819 71.7904C92.0567 74.3875 92.9085 75.4264 94.6461 75.4264C96.4518 75.4264 97.474 73.868 97.474 71.1112C97.474 68.4741 96.3837 66.8358 94.5779 66.8358C93.2833 66.8358 92.6359 67.3951 92.0567 68.9135L88.1385 68.0345L88.9561 53.1309L101.085 53.1309Z" fill="#F1F0F1"/>
<path d="M102.946 51.665V53.1327H103.799V54.0049H102.946V56.3233C102.946 57.0997 102.964 57.2485 103.073 57.3975C103.173 57.5251 103.327 57.5889 103.572 57.5889C103.681 57.5889 103.772 57.5783 103.944 57.5571V58.4185C103.654 58.4823 103.5 58.5035 103.264 58.5035C102.729 58.5035 102.375 58.3121 102.203 57.9186C102.067 57.6102 102.039 57.323 102.039 56.3978V54.0049H101.459V53.1327H102.067L102.112 51.7607L102.946 51.665Z" fill="#F1F0F1"/>
<path d="M105.241 51.2822V53.824C105.495 53.2284 105.785 53.0051 106.302 53.0051C106.439 53.0051 106.565 53.0263 106.692 53.0689C107.028 53.1858 107.273 53.4943 107.354 53.909C107.418 54.1856 107.427 54.4196 107.427 55.0683V58.3759H106.502V55.0683C106.502 54.6003 106.484 54.3664 106.42 54.2175C106.339 53.9836 106.185 53.8771 105.958 53.8771C105.468 53.8771 105.241 54.3558 105.241 55.3768V58.3759H104.316V51.2822L105.241 51.2822Z" fill="#F1F0F1"/>
</g>
<defs>
<clipPath id="clip0_1331_25039">
<rect width="173" height="100" fill="white"/>
</clipPath>
</defs>
</svg>
