<svg width="479" height="59" viewBox="0 0 479 59" fill="none" xmlns="http://www.w3.org/2000/svg">
<path d="M24.092 55.652C28.0227 55.652 31.616 55.08 34.872 53.936C38.128 52.792 41.076 51.2813 43.716 49.404C46.356 47.4973 48.7027 45.312 50.756 42.848C52.8093 40.3547 54.5987 37.7733 56.124 35.104C57.6787 32.4347 58.984 29.7507 60.04 27.052C61.096 24.3533 61.9467 21.8453 62.592 19.528C63.2373 17.2107 63.6773 15.1573 63.912 13.368C64.176 11.5787 64.2787 10.2587 64.22 9.408C64.1613 8.616 64.0587 7.94133 63.912 7.384C63.7653 6.79733 63.5013 6.328 63.12 5.976C62.768 5.624 62.284 5.38933 61.668 5.272C61.052 5.12533 60.2453 5.096 59.248 5.184C56.5493 5.536 53.9533 6.12266 51.46 6.944C48.996 7.736 46.6933 8.67466 44.552 9.76C42.44 10.8453 40.5333 12.0333 38.832 13.324C37.1307 14.6147 35.708 15.92 34.564 17.24C33.4493 18.56 32.6427 19.8653 32.144 21.156C31.6747 22.4173 31.5867 23.5907 31.88 24.676C32.2907 26.084 33.0533 27.0373 34.168 27.536C35.312 28.0347 36.6467 28.2107 38.172 28.064C39.7267 27.888 41.384 27.4333 43.144 26.7C44.9333 25.9667 46.664 25.0573 48.336 23.972C50.008 22.8573 51.5333 21.6253 52.912 20.276C54.32 18.9267 55.42 17.548 56.212 16.14C56.3293 17.8707 56.0947 19.5867 55.508 21.288C54.9213 22.96 53.9827 24.5 52.692 25.908C51.4307 27.316 49.8467 28.504 47.94 29.472C46.0627 30.4107 43.892 30.9827 41.428 31.188C37.4387 31.4227 34.256 30.9533 31.88 29.78C29.5333 28.6067 28.1547 26.7587 27.744 24.236C27.48 22.5933 27.612 20.936 28.14 19.264C28.6973 17.592 29.592 15.9787 30.824 14.424C32.056 12.8693 33.5813 11.4027 35.4 10.024C37.2187 8.616 39.2573 7.34 41.516 6.196C43.7747 5.052 46.2093 4.084 48.82 3.292C51.46 2.5 54.2027 1.91333 57.048 1.532C58.1627 1.38533 59.4387 1.37066 60.876 1.488C62.3427 1.60533 63.78 1.91333 65.188 2.412C66.596 2.91066 67.872 3.65866 69.016 4.656C70.1893 5.624 71.0547 6.91466 71.612 8.528C71.9933 9.64266 72.1693 11.2267 72.14 13.28C72.14 15.304 71.8907 17.592 71.392 20.144C70.8933 22.696 70.116 25.424 69.06 28.328C68.0333 31.2027 66.684 34.0627 65.012 36.908C63.34 39.724 61.3307 42.4373 58.984 45.048C56.6667 47.6587 53.9533 49.9613 50.844 51.956C47.764 53.9213 44.2733 55.4907 40.372 56.664C36.4707 57.8667 32.1293 58.468 27.348 58.468C25.2947 58.468 23.256 58.2773 21.232 57.896C19.208 57.544 17.272 57.0307 15.424 56.356C13.576 55.6813 11.8307 54.8747 10.188 53.936C8.57467 53.0267 7.13733 52.0293 5.876 50.944C4.61467 49.8587 3.55867 48.7 2.708 47.468C1.85733 46.236 1.27067 44.9747 0.948 43.684C0.42 41.6307 0.508 39.6213 1.212 37.656C1.88667 35.6907 3.104 33.9747 4.864 32.508C6.624 31.0413 8.88267 29.912 11.64 29.12C14.4267 28.2987 17.668 28.02 21.364 28.284C24.268 28.5187 26.9227 28.988 29.328 29.692C31.7333 30.3667 33.7427 31.232 35.356 32.288C36.9987 33.344 38.1867 34.5467 38.92 35.896C39.6533 37.216 39.8 38.6093 39.36 40.076C39.272 40.428 39.0813 40.8093 38.788 41.22C38.524 41.6307 38.1573 42.012 37.688 42.364C37.2187 42.716 36.6467 43.0093 35.972 43.244C35.2973 43.4787 34.5347 43.596 33.684 43.596C33.684 41.6307 33.2587 39.9733 32.408 38.624C31.5573 37.2453 30.4427 36.1453 29.064 35.324C27.7147 34.4733 26.16 33.8867 24.4 33.564C22.6693 33.212 20.8947 33.0947 19.076 33.212C17.2573 33.3 15.4827 33.608 13.752 34.136C12.0213 34.6347 10.4813 35.324 9.132 36.204C7.78267 37.0547 6.712 38.0667 5.92 39.24C5.128 40.384 4.76133 41.66 4.82 43.068C4.87867 44.5053 5.45067 45.972 6.536 47.468C7.62133 48.964 9.044 50.3133 10.804 51.516C12.5933 52.7187 14.632 53.7013 16.92 54.464C19.2373 55.256 21.628 55.652 24.092 55.652ZM82.6832 47.776C82.7712 47.1893 82.9325 46.4707 83.1672 45.62C83.4018 44.74 83.6658 43.8307 83.9592 42.892C84.2818 41.9533 84.6045 41.0147 84.9272 40.076C85.2498 39.1373 85.5578 38.3013 85.8512 37.568C86.0565 37.0107 86.2472 36.512 86.4232 36.072C86.6285 35.6027 86.8192 35.1627 86.9952 34.752C87.2298 34.1653 87.3178 33.784 87.2592 33.608C87.2005 33.4027 87.0538 33.3293 86.8192 33.388C86.6138 33.4467 86.3498 33.5933 86.0272 33.828C85.7338 34.0333 85.4552 34.2533 85.1912 34.488C84.8978 34.752 84.4432 35.1627 83.8272 35.72C83.2405 36.248 82.5805 36.908 81.8472 37.7C81.1138 38.4627 80.3512 39.328 79.5592 40.296C78.7672 41.264 78.0338 42.2907 77.3592 43.376C76.7138 44.432 76.1418 45.532 75.6432 46.676C75.1738 47.82 74.8805 48.964 74.7632 50.108C74.8512 50.9293 75.1298 51.5747 75.5992 52.044C74.8952 52.044 74.1472 51.9853 73.3552 51.868C72.5632 51.7213 71.8445 51.4867 71.1992 51.164C70.5245 50.812 69.9965 50.372 69.6152 49.844C69.2045 49.2867 69.0432 48.5973 69.1312 47.776C69.1605 47.1893 69.2925 46.4707 69.5272 45.62C69.7618 44.74 70.0258 43.8307 70.3192 42.892C70.6125 41.924 70.9352 40.9853 71.2872 40.076C71.6098 39.1373 71.9032 38.3013 72.1672 37.568L74.2352 32.376C74.4112 31.7893 74.4552 31.3347 74.3672 31.012C74.2792 30.66 74.1912 30.308 74.1032 29.956C74.1032 29.9267 74.3818 30.0733 74.9392 30.396C75.4965 30.7187 76.1272 31.1293 76.8312 31.628C77.5645 32.0973 78.2538 32.6107 78.8992 33.168C79.5738 33.7253 79.9845 34.224 80.1312 34.664C80.2778 34.9867 80.3658 35.3533 80.3952 35.764C80.4538 36.1453 80.3805 36.5853 80.1752 37.084C80.9085 36.1747 81.5098 35.412 81.9792 34.796C82.4485 34.1507 82.9325 33.5493 83.4312 32.992C84.2525 32.1413 85.0445 31.452 85.8072 30.924C86.5992 30.396 87.4058 30.088 88.2272 30C88.6965 29.9413 89.3125 30.0587 90.0752 30.352C90.8672 30.616 91.6005 30.9973 92.2752 31.496C92.9792 31.9653 93.5512 32.5227 93.9912 33.168C94.4605 33.784 94.6218 34.4293 94.4752 35.104C94.3578 35.9253 94.0352 36.8493 93.5072 37.876C93.0085 38.8733 92.4512 39.9293 91.8352 41.044C91.2192 42.1293 90.6032 43.244 89.9872 44.388C89.3712 45.532 88.9018 46.6467 88.5792 47.732C88.4325 48.2307 88.4325 48.524 88.5792 48.612C88.7258 48.7 88.9312 48.6853 89.1952 48.568C89.4885 48.4213 89.7818 48.2453 90.0752 48.04C90.3685 47.8053 90.5738 47.6293 90.6912 47.512C91.5125 46.7493 92.3925 45.796 93.3312 44.652C94.2698 43.508 95.2085 42.3787 96.1472 41.264L100.459 36.072C100.43 36.248 100.415 36.512 100.415 36.864C100.415 37.1867 100.342 37.5973 100.195 38.096C100.078 38.5947 99.8578 39.1813 99.5352 39.856C99.2418 40.5013 98.7725 41.2493 98.1272 42.1L97.8192 42.408L96.6312 43.992C95.9565 44.8427 95.2818 45.7227 94.6072 46.632C93.9325 47.512 93.2285 48.3333 92.4952 49.096C91.7032 49.9173 90.8965 50.592 90.0752 51.12C89.2538 51.6187 88.4618 51.912 87.6992 52C87.2005 52.0587 86.6285 52 85.9832 51.824C85.3672 51.648 84.7952 51.3693 84.2672 50.988C83.7392 50.6067 83.3138 50.152 82.9912 49.624C82.6978 49.0667 82.5952 48.4507 82.6832 47.776ZM108.92 43.684C108.509 44.2707 107.981 44.9747 107.336 45.796C106.72 46.588 106.06 47.3067 105.356 47.952C104.681 48.5387 104.021 49.1107 103.376 49.668C102.76 50.2253 102.158 50.7093 101.572 51.12C101.014 51.5307 100.486 51.8387 99.9875 52.044C99.4889 52.2493 99.0489 52.2933 98.6675 52.176C97.4942 51.7947 96.4675 51.3547 95.5875 50.856C94.6782 50.3573 94.2089 49.712 94.1795 48.92C94.1209 47.6 94.4435 45.9867 95.1475 44.08C95.8222 42.1733 96.8635 40.164 98.2715 38.052C98.9462 37.0547 99.7089 36.072 100.56 35.104C101.41 34.1067 102.29 33.212 103.2 32.42C104.109 31.5987 105.018 30.9093 105.928 30.352C106.837 29.7653 107.702 29.384 108.524 29.208C108.7 29.1787 109.022 29.1787 109.492 29.208C109.99 29.2373 110.504 29.34 111.032 29.516C111.56 29.6627 112.029 29.868 112.44 30.132C112.88 30.396 113.144 30.748 113.232 31.188C113.584 30.1907 113.98 29.076 114.42 27.844C114.889 26.612 115.373 25.3507 115.872 24.06C116.37 22.7693 116.854 21.508 117.324 20.276C117.822 19.044 118.262 17.9293 118.644 16.932C119.025 15.9347 119.333 15.1133 119.568 14.468C119.832 13.8227 119.978 13.456 120.008 13.368C120.154 12.8107 120.257 12.3853 120.316 12.092C120.374 11.7693 120.36 11.432 120.272 11.08C120.272 11.0507 120.58 11.2267 121.196 11.608C121.841 11.96 122.56 12.4147 123.352 12.972C124.173 13.5293 124.936 14.116 125.64 14.732C126.373 15.348 126.813 15.876 126.96 16.316C127.106 16.7267 127.15 17.2107 127.092 17.768C127.033 18.3253 126.798 19.0293 126.388 19.88C126.388 19.88 126.212 20.2613 125.86 21.024C125.508 21.7573 125.024 22.74 124.408 23.972C123.821 25.204 123.146 26.6267 122.384 28.24C121.65 29.824 120.888 31.4667 120.096 33.168C119.304 34.84 118.512 36.512 117.72 38.184C116.957 39.8267 116.253 41.3227 115.608 42.672C114.992 43.992 114.478 45.1213 114.068 46.06C113.657 46.9693 113.408 47.5267 113.32 47.732C113.144 48.2307 113.129 48.524 113.276 48.612C113.422 48.6707 113.628 48.6413 113.892 48.524C114.185 48.4067 114.478 48.2453 114.772 48.04C115.094 47.8053 115.329 47.6293 115.476 47.512C116.297 46.7493 117.177 45.796 118.116 44.652C119.054 43.508 119.993 42.3787 120.932 41.264L125.244 36.072C125.185 36.248 125.156 36.512 125.156 36.864C125.156 37.1867 125.082 37.5973 124.936 38.096C124.818 38.5947 124.598 39.1813 124.276 39.856C123.982 40.5013 123.513 41.2493 122.868 42.1L122.604 42.408L121.372 43.992C120.726 44.8427 120.052 45.7227 119.348 46.632C118.673 47.512 117.984 48.3333 117.28 49.096C116.458 49.9173 115.637 50.592 114.816 51.12C113.994 51.6187 113.202 51.912 112.44 52C111.941 52.0587 111.384 52 110.768 51.824C110.181 51.6187 109.624 51.3253 109.096 50.944C108.597 50.5333 108.186 50.0493 107.864 49.492C107.57 48.9347 107.482 48.3187 107.6 47.644L108.92 43.684ZM112.616 32.728C112.528 32.288 112.366 32.0827 112.132 32.112C111.897 32.1413 111.736 32.1707 111.648 32.2C110.416 32.6693 109.242 33.5787 108.128 34.928C107.013 36.2773 105.84 37.9053 104.608 39.812C104.608 39.8413 104.49 40.0467 104.256 40.428C104.021 40.78 103.742 41.2347 103.42 41.792C103.097 42.3493 102.745 42.9653 102.364 43.64C101.982 44.2853 101.63 44.8867 101.308 45.444C101.014 46.0013 100.78 46.4853 100.604 46.896C100.428 47.2773 100.369 47.4827 100.428 47.512C100.75 47.688 101.22 47.6293 101.836 47.336C102.452 47.0133 103.126 46.5587 103.86 45.972C104.593 45.3853 105.341 44.7107 106.104 43.948C106.896 43.1853 107.614 42.4227 108.26 41.66C108.934 40.8973 109.506 40.1933 109.976 39.548C110.445 38.8733 110.724 38.36 110.812 38.008L112.616 32.728ZM121.605 47.644C121.811 46.852 122.06 45.9427 122.353 44.916C122.647 43.8893 122.94 42.848 123.233 41.792C123.527 40.7067 123.82 39.6507 124.113 38.624C124.436 37.568 124.715 36.6 124.949 35.72C125.184 34.84 125.375 34.1067 125.521 33.52C125.697 32.904 125.815 32.4933 125.873 32.288C126.049 31.7013 126.167 31.2613 126.225 30.968C126.284 30.6453 126.269 30.308 126.181 29.956C126.181 29.9267 126.313 29.9853 126.577 30.132C126.841 30.2787 127.179 30.484 127.589 30.748C128.029 30.9827 128.499 31.276 128.997 31.628C129.525 31.9507 130.024 32.288 130.493 32.64C130.963 32.992 131.359 33.344 131.681 33.696C132.033 34.048 132.268 34.3707 132.385 34.664C132.532 35.0747 132.576 35.5733 132.517 36.16C132.459 36.7173 132.209 37.4067 131.769 38.228C131.769 38.228 131.667 38.4187 131.461 38.8C131.285 39.1813 131.051 39.68 130.757 40.296C130.464 40.912 130.127 41.5867 129.745 42.32C129.393 43.0533 129.041 43.7867 128.689 44.52C128.367 45.224 128.059 45.8693 127.765 46.456C127.501 47.0133 127.311 47.4387 127.193 47.732C127.017 48.2307 127.003 48.524 127.149 48.612C127.325 48.6707 127.545 48.6413 127.809 48.524C128.103 48.4067 128.396 48.2453 128.689 48.04C129.012 47.8053 129.232 47.6293 129.349 47.512C130.171 46.7493 131.051 45.796 131.989 44.652C132.957 43.508 133.911 42.3787 134.849 41.264L139.117 36.072C139.059 36.248 139.029 36.512 139.029 36.864C139.029 37.1867 138.971 37.5973 138.853 38.096C138.736 38.5947 138.516 39.1813 138.193 39.856C137.9 40.5013 137.445 41.2493 136.829 42.1L136.477 42.408L135.333 43.992C134.659 44.8427 133.984 45.7227 133.309 46.632C132.635 47.512 131.916 48.3333 131.153 49.096C130.391 49.9173 129.584 50.592 128.733 51.12C127.883 51.6187 127.076 51.912 126.313 52C125.815 52.0587 125.257 52 124.641 51.824C124.055 51.6187 123.512 51.3253 123.013 50.944C122.515 50.5333 122.119 50.0493 121.825 49.492C121.532 48.9347 121.459 48.3187 121.605 47.644ZM129.877 21.288C131.725 21.904 133.089 22.5347 133.969 23.18C134.849 23.796 135.407 24.412 135.641 25.028C135.876 25.644 135.861 26.26 135.597 26.876C135.363 27.492 135.055 28.0933 134.673 28.68C134.321 29.2667 133.969 29.8387 133.617 30.396C133.295 30.9533 133.148 31.4813 133.177 31.98C131.593 31.4227 130.435 30.8653 129.701 30.308C128.997 29.7213 128.543 29.1347 128.337 28.548C128.161 27.9613 128.176 27.3747 128.381 26.788C128.587 26.172 128.821 25.5707 129.085 24.984C129.379 24.368 129.628 23.752 129.833 23.136C130.039 22.52 130.053 21.904 129.877 21.288ZM147.989 43.2C147.872 43.4933 147.593 43.948 147.153 44.564C146.743 45.18 146.229 45.84 145.613 46.544C144.997 47.248 144.308 47.9667 143.545 48.7C142.812 49.4333 142.079 50.0787 141.345 50.636C140.641 51.1933 139.967 51.6333 139.321 51.956C138.676 52.2493 138.133 52.3227 137.693 52.176C137.107 52 136.564 51.8093 136.065 51.604C135.537 51.3693 135.068 51.12 134.657 50.856C134.247 50.592 133.924 50.3133 133.689 50.02C133.425 49.6973 133.279 49.3307 133.249 48.92C133.191 47.6 133.513 45.9867 134.217 44.08C134.892 42.1733 135.933 40.164 137.341 38.052C137.811 37.348 138.397 36.5413 139.101 35.632C139.805 34.7227 140.627 33.8573 141.565 33.036C142.533 32.2147 143.619 31.5253 144.821 30.968C146.053 30.4107 147.417 30.132 148.913 30.132C149.823 30.132 150.673 30.2347 151.465 30.44C152.257 30.6453 152.947 30.924 153.533 31.276C154.12 31.5987 154.604 31.98 154.985 32.42C155.367 32.8307 155.616 33.2413 155.733 33.652C155.851 34.0333 155.851 34.3853 155.733 34.708C155.616 35.0307 155.323 35.192 154.853 35.192C154.325 35.192 153.973 35.0747 153.797 34.84C153.651 34.6053 153.504 34.3413 153.357 34.048C153.211 33.7547 152.991 33.4907 152.697 33.256C152.433 32.992 151.935 32.86 151.201 32.86C150.497 32.86 149.764 33.124 149.001 33.652C148.268 34.18 147.549 34.8253 146.845 35.588C146.171 36.3213 145.555 37.084 144.997 37.876C144.44 38.668 144 39.3133 143.677 39.812C143.677 39.8413 143.501 40.1347 143.149 40.692C142.797 41.2493 142.401 41.9093 141.961 42.672C141.521 43.4347 141.081 44.212 140.641 45.004C140.201 45.7667 139.879 46.3827 139.673 46.852C139.497 47.204 139.527 47.4387 139.761 47.556C139.996 47.644 140.348 47.5707 140.817 47.336C141.199 47.1307 141.668 46.7933 142.225 46.324C142.783 45.8547 143.369 45.312 143.985 44.696C144.601 44.0507 145.217 43.376 145.833 42.672C146.479 41.968 147.08 41.2933 147.637 40.648C148.195 39.9733 148.693 39.3427 149.133 38.756C149.573 38.1693 149.911 37.7 150.145 37.348L151.377 34.576C151.407 34.5467 151.671 34.664 152.169 34.928C152.697 35.1627 153.284 35.5 153.929 35.94C154.575 36.3507 155.191 36.8053 155.777 37.304C156.364 37.8027 156.745 38.272 156.921 38.712C157.068 39.1227 156.98 39.5627 156.657 40.032C156.335 40.5013 155.953 41.1613 155.513 42.012C155.513 42.012 155.396 42.232 155.161 42.672C154.956 43.0827 154.707 43.596 154.413 44.212C154.12 44.7987 153.827 45.4293 153.533 46.104C153.269 46.7493 153.093 47.292 153.005 47.732C152.917 48.26 152.961 48.568 153.137 48.656C153.313 48.744 153.533 48.7293 153.797 48.612C154.061 48.4653 154.325 48.2747 154.589 48.04C154.853 47.8053 155.044 47.6293 155.161 47.512C155.983 46.7493 156.863 45.796 157.801 44.652C158.769 43.508 159.723 42.3787 160.661 41.264L164.929 36.072C164.871 36.248 164.841 36.512 164.841 36.864C164.841 37.1867 164.783 37.5973 164.665 38.096C164.548 38.5947 164.328 39.1813 164.005 39.856C163.712 40.5013 163.257 41.2493 162.641 42.1L162.289 42.408L161.145 43.992C160.471 44.8427 159.796 45.7227 159.121 46.632C158.447 47.512 157.728 48.3333 156.965 49.096C156.203 49.9173 155.396 50.6067 154.545 51.164C153.724 51.692 152.917 51.9707 152.125 52C151.568 52 151.011 51.8973 150.453 51.692C149.925 51.4573 149.441 51.1347 149.001 50.724C148.591 50.3133 148.253 49.8293 147.989 49.272C147.755 48.7147 147.637 48.1133 147.637 47.468C147.637 47.116 147.652 46.72 147.681 46.28C147.711 45.84 147.74 45.4147 147.769 45.004C147.828 44.5933 147.872 44.2267 147.901 43.904C147.96 43.5813 147.989 43.3467 147.989 43.2ZM174.078 47.776C174.166 47.1893 174.327 46.4707 174.562 45.62C174.796 44.74 175.06 43.8307 175.354 42.892C175.676 41.9533 175.999 41.0147 176.322 40.076C176.644 39.1373 176.952 38.3013 177.246 37.568C177.451 37.0107 177.642 36.512 177.818 36.072C178.023 35.6027 178.214 35.1627 178.39 34.752C178.624 34.1653 178.712 33.784 178.654 33.608C178.595 33.4027 178.448 33.3293 178.214 33.388C178.008 33.4467 177.744 33.5933 177.422 33.828C177.128 34.0333 176.85 34.2533 176.586 34.488C176.292 34.752 175.838 35.1627 175.222 35.72C174.635 36.248 173.975 36.908 173.242 37.7C172.508 38.4627 171.746 39.328 170.954 40.296C170.162 41.264 169.428 42.2907 168.754 43.376C168.108 44.432 167.536 45.532 167.038 46.676C166.568 47.82 166.275 48.964 166.158 50.108C166.246 50.9293 166.524 51.5747 166.994 52.044C166.29 52.044 165.542 51.9853 164.75 51.868C163.958 51.7213 163.239 51.4867 162.594 51.164C161.919 50.812 161.391 50.372 161.01 49.844C160.599 49.2867 160.438 48.5973 160.526 47.776C160.555 47.1893 160.687 46.4707 160.922 45.62C161.156 44.74 161.42 43.8307 161.714 42.892C162.007 41.924 162.33 40.9853 162.682 40.076C163.004 39.1373 163.298 38.3013 163.562 37.568L165.63 32.376C165.806 31.7893 165.85 31.3347 165.762 31.012C165.674 30.66 165.586 30.308 165.498 29.956C165.498 29.9267 165.776 30.0733 166.334 30.396C166.891 30.7187 167.522 31.1293 168.226 31.628C168.959 32.0973 169.648 32.6107 170.294 33.168C170.968 33.7253 171.379 34.224 171.526 34.664C171.672 34.9867 171.76 35.3533 171.79 35.764C171.848 36.1453 171.775 36.5853 171.57 37.084C172.303 36.1747 172.904 35.412 173.374 34.796C173.843 34.1507 174.327 33.5493 174.826 32.992C175.647 32.1413 176.439 31.452 177.202 30.924C177.994 30.396 178.8 30.088 179.622 30C180.091 29.9413 180.707 30.0587 181.47 30.352C182.262 30.616 182.995 30.9973 183.67 31.496C184.374 31.9653 184.946 32.5227 185.386 33.168C185.855 33.784 186.016 34.4293 185.87 35.104C185.752 35.9253 185.43 36.8493 184.902 37.876C184.403 38.8733 183.846 39.9293 183.23 41.044C182.614 42.1293 181.998 43.244 181.382 44.388C180.766 45.532 180.296 46.6467 179.974 47.732C179.827 48.2307 179.827 48.524 179.974 48.612C180.12 48.7 180.326 48.6853 180.59 48.568C180.883 48.4213 181.176 48.2453 181.47 48.04C181.763 47.8053 181.968 47.6293 182.086 47.512C182.907 46.7493 183.787 45.796 184.726 44.652C185.664 43.508 186.603 42.3787 187.542 41.264L191.854 36.072C191.824 36.248 191.81 36.512 191.81 36.864C191.81 37.1867 191.736 37.5973 191.59 38.096C191.472 38.5947 191.252 39.1813 190.93 39.856C190.636 40.5013 190.167 41.2493 189.522 42.1L189.214 42.408L188.026 43.992C187.351 44.8427 186.676 45.7227 186.002 46.632C185.327 47.512 184.623 48.3333 183.89 49.096C183.098 49.9173 182.291 50.592 181.47 51.12C180.648 51.6187 179.856 51.912 179.094 52C178.595 52.0587 178.023 52 177.378 51.824C176.762 51.648 176.19 51.3693 175.662 50.988C175.134 50.6067 174.708 50.152 174.386 49.624C174.092 49.0667 173.99 48.4507 174.078 47.776ZM260.984 8.572C261.042 9.86267 260.94 11.256 260.676 12.752C260.412 14.248 260.016 15.8173 259.488 17.46C258.989 19.0733 258.402 20.76 257.728 22.52C257.082 24.2507 256.393 26.0107 255.66 27.8C257.684 24.9547 259.414 22.3587 260.852 20.012C262.318 17.6653 263.653 15.524 264.856 13.588C266.088 11.652 267.276 9.92133 268.42 8.396C269.564 6.84133 270.84 5.448 272.248 4.216C273.216 3.36533 274.433 2.82267 275.9 2.588C277.396 2.324 278.906 2.38266 280.432 2.764C281.957 3.14533 283.365 3.84933 284.656 4.876C285.976 5.90266 286.958 7.28133 287.604 9.012C287.75 9.452 287.868 9.936 287.956 10.464C288.073 10.992 288.146 11.5347 288.176 12.092C288.234 12.62 288.278 13.148 288.308 13.676C288.337 14.1747 288.352 14.6147 288.352 14.996C288.352 17.4307 287.926 19.7333 287.076 21.904C286.225 24.0453 285.022 26.0253 283.468 27.844C281.913 29.6333 280.036 31.232 277.836 32.64C275.636 34.048 273.186 35.2067 270.488 36.116C267.789 37.0253 264.87 37.656 261.732 38.008C258.622 38.36 255.352 38.3893 251.92 38.096H251.656C250.893 40.2667 250.248 42.3787 249.72 44.432C249.221 46.4853 248.942 48.4213 248.884 50.24C248.825 52.0293 249.045 53.6573 249.544 55.124C250.072 56.62 250.996 57.896 252.316 58.952C250.82 58.864 249.47 58.5707 248.268 58.072C247.094 57.6027 246.053 57.0307 245.144 56.356C244.264 55.6813 243.501 54.948 242.856 54.156C242.21 53.364 241.682 52.616 241.272 51.912C240.656 50.8853 240.23 49.7707 239.996 48.568C239.79 47.336 239.717 46.0453 239.776 44.696C239.834 43.3467 240.025 41.9533 240.348 40.516C240.7 39.0493 241.14 37.568 241.668 36.072C239.057 35.2213 236.725 34.092 234.672 32.684C232.618 31.276 231.137 29.56 230.228 27.536C231.753 29.0907 233.601 30.352 235.772 31.32C237.942 32.2587 240.216 32.992 242.592 33.52C243.296 31.672 244.088 29.824 244.968 27.976C245.848 26.128 246.728 24.3387 247.608 22.608C248.517 20.8773 249.382 19.22 250.204 17.636C251.054 16.052 251.802 14.5853 252.448 13.236C253.093 11.8867 253.592 10.6987 253.944 9.672C254.325 8.64533 254.501 7.80933 254.472 7.164C254.384 6.636 254.208 6.22533 253.944 5.932C253.709 5.60933 253.342 5.37466 252.844 5.228C252.345 5.052 251.685 4.94933 250.864 4.92C250.072 4.89066 249.074 4.89066 247.872 4.92C244.528 5.06666 241.11 5.56533 237.62 6.416C234.158 7.26666 230.814 8.36666 227.588 9.716C224.361 11.036 221.354 12.5467 218.568 14.248C215.781 15.9493 213.39 17.7093 211.396 19.528C209.401 21.3173 207.905 23.1067 206.908 24.896C205.91 26.6853 205.588 28.3427 205.94 29.868C206.262 31.3347 207.113 32.5813 208.492 33.608C209.841 34.6053 211.484 35.4267 213.42 36.072C215.356 36.688 217.468 37.1427 219.756 37.436C222.044 37.7293 224.258 37.9053 226.4 37.964C228.57 38.0227 230.55 37.9787 232.34 37.832C234.158 37.6853 235.552 37.48 236.52 37.216C236.168 38.1253 235.61 38.8293 234.848 39.328C234.085 39.8267 233.264 40.1933 232.384 40.428C231.504 40.6333 230.638 40.7507 229.788 40.78C228.937 40.8093 228.248 40.8093 227.72 40.78C226.018 40.7213 224.229 40.5747 222.352 40.34C220.504 40.076 218.67 39.7387 216.852 39.328C215.033 38.9173 213.273 38.404 211.572 37.788C209.87 37.172 208.33 36.468 206.952 35.676C205.573 34.884 204.414 34.004 203.476 33.036C202.508 32.0387 201.862 30.9387 201.54 29.736C201.012 27.9467 201.026 26.172 201.584 24.412C202.141 22.6227 203.109 20.892 204.488 19.22C205.866 17.5187 207.582 15.8907 209.636 14.336C211.689 12.752 213.948 11.2853 216.412 9.936C218.905 8.58666 221.53 7.35466 224.288 6.24C227.045 5.096 229.817 4.128 232.604 3.336C235.42 2.544 238.162 1.928 240.832 1.488C243.53 1.048 246.053 0.827995 248.4 0.827995C249.954 0.827995 251.421 1.07733 252.8 1.576C254.208 2.04533 255.469 2.66133 256.584 3.424C257.698 4.15733 258.637 4.97867 259.4 5.888C260.162 6.79733 260.69 7.692 260.984 8.572ZM275.284 7.692C273.289 9.51066 271.353 11.5053 269.476 13.676C267.628 15.8467 265.809 18.1053 264.02 20.452C262.23 22.7987 260.47 25.1893 258.74 27.624C257.038 30.0293 255.337 32.3613 253.636 34.62C257.684 34.5907 261.218 34.1067 264.24 33.168C267.261 32.2 269.813 30.8507 271.896 29.12C274.008 27.36 275.665 25.2627 276.868 22.828C278.1 20.3933 278.936 17.6947 279.376 14.732C279.405 14.468 279.434 14.1747 279.464 13.852C279.522 13.5 279.566 13.148 279.596 12.796C279.625 12.4147 279.64 12.048 279.64 11.696C279.64 11.344 279.625 11.0507 279.596 10.816C279.185 8.528 278.657 7.14933 278.012 6.68C277.396 6.18133 276.486 6.51866 275.284 7.692ZM296.404 43.2C296.286 43.4933 296.008 43.948 295.568 44.564C295.157 45.18 294.644 45.84 294.028 46.544C293.412 47.248 292.722 47.9667 291.96 48.7C291.226 49.4333 290.493 50.0787 289.76 50.636C289.056 51.1933 288.381 51.6333 287.736 51.956C287.09 52.2493 286.548 52.3227 286.108 52.176C285.521 52 284.978 51.8093 284.48 51.604C283.952 51.3693 283.482 51.12 283.072 50.856C282.661 50.592 282.338 50.3133 282.104 50.02C281.84 49.6973 281.693 49.3307 281.664 48.92C281.605 47.6 281.928 45.9867 282.632 44.08C283.306 42.1733 284.348 40.164 285.756 38.052C286.225 37.348 286.812 36.5413 287.516 35.632C288.22 34.7227 289.041 33.8573 289.98 33.036C290.948 32.2147 292.033 31.5253 293.236 30.968C294.468 30.4107 295.832 30.132 297.328 30.132C298.237 30.132 299.088 30.2347 299.88 30.44C300.672 30.6453 301.361 30.924 301.948 31.276C302.534 31.5987 303.018 31.98 303.4 32.42C303.781 32.8307 304.03 33.2413 304.148 33.652C304.265 34.0333 304.265 34.3853 304.148 34.708C304.03 35.0307 303.737 35.192 303.268 35.192C302.74 35.192 302.388 35.0747 302.212 34.84C302.065 34.6053 301.918 34.3413 301.772 34.048C301.625 33.7547 301.405 33.4907 301.112 33.256C300.848 32.992 300.349 32.86 299.616 32.86C298.912 32.86 298.178 33.124 297.416 33.652C296.682 34.18 295.964 34.8253 295.26 35.588C294.585 36.3213 293.969 37.084 293.412 37.876C292.854 38.668 292.414 39.3133 292.092 39.812C292.092 39.8413 291.916 40.1347 291.564 40.692C291.212 41.2493 290.816 41.9093 290.376 42.672C289.936 43.4347 289.496 44.212 289.056 45.004C288.616 45.7667 288.293 46.3827 288.088 46.852C287.912 47.204 287.941 47.4387 288.176 47.556C288.41 47.644 288.762 47.5707 289.232 47.336C289.613 47.1307 290.082 46.7933 290.64 46.324C291.197 45.8547 291.784 45.312 292.4 44.696C293.016 44.0507 293.632 43.376 294.248 42.672C294.893 41.968 295.494 41.2933 296.052 40.648C296.609 39.9733 297.108 39.3427 297.548 38.756C297.988 38.1693 298.325 37.7 298.56 37.348L299.792 34.576C299.821 34.5467 300.085 34.664 300.584 34.928C301.112 35.1627 301.698 35.5 302.344 35.94C302.989 36.3507 303.605 36.8053 304.192 37.304C304.778 37.8027 305.16 38.272 305.336 38.712C305.482 39.1227 305.394 39.5627 305.072 40.032C304.749 40.5013 304.368 41.1613 303.928 42.012C303.928 42.012 303.81 42.232 303.576 42.672C303.37 43.0827 303.121 43.596 302.828 44.212C302.534 44.7987 302.241 45.4293 301.948 46.104C301.684 46.7493 301.508 47.292 301.42 47.732C301.332 48.26 301.376 48.568 301.552 48.656C301.728 48.744 301.948 48.7293 302.212 48.612C302.476 48.4653 302.74 48.2747 303.004 48.04C303.268 47.8053 303.458 47.6293 303.576 47.512C304.397 46.7493 305.277 45.796 306.216 44.652C307.184 43.508 308.137 42.3787 309.076 41.264L313.344 36.072C313.285 36.248 313.256 36.512 313.256 36.864C313.256 37.1867 313.197 37.5973 313.08 38.096C312.962 38.5947 312.742 39.1813 312.42 39.856C312.126 40.5013 311.672 41.2493 311.056 42.1L310.704 42.408L309.56 43.992C308.885 44.8427 308.21 45.7227 307.536 46.632C306.861 47.512 306.142 48.3333 305.38 49.096C304.617 49.9173 303.81 50.6067 302.96 51.164C302.138 51.692 301.332 51.9707 300.54 52C299.982 52 299.425 51.8973 298.868 51.692C298.34 51.4573 297.856 51.1347 297.416 50.724C297.005 50.3133 296.668 49.8293 296.404 49.272C296.169 48.7147 296.052 48.1133 296.052 47.468C296.052 47.116 296.066 46.72 296.096 46.28C296.125 45.84 296.154 45.4147 296.184 45.004C296.242 44.5933 296.286 44.2267 296.316 43.904C296.374 43.5813 296.404 43.3467 296.404 43.2ZM322.492 47.776C322.58 47.1893 322.741 46.4707 322.976 45.62C323.21 44.74 323.474 43.8307 323.768 42.892C324.09 41.9533 324.413 41.0147 324.736 40.076C325.058 39.1373 325.366 38.3013 325.66 37.568C325.865 37.0107 326.056 36.512 326.232 36.072C326.437 35.6027 326.628 35.1627 326.804 34.752C327.038 34.1653 327.126 33.784 327.068 33.608C327.009 33.4027 326.862 33.3293 326.628 33.388C326.422 33.4467 326.158 33.5933 325.836 33.828C325.542 34.0333 325.264 34.2533 325 34.488C324.706 34.752 324.252 35.1627 323.636 35.72C323.049 36.248 322.389 36.908 321.656 37.7C320.922 38.4627 320.16 39.328 319.368 40.296C318.576 41.264 317.842 42.2907 317.168 43.376C316.522 44.432 315.95 45.532 315.452 46.676C314.982 47.82 314.689 48.964 314.572 50.108C314.66 50.9293 314.938 51.5747 315.408 52.044C314.704 52.044 313.956 51.9853 313.164 51.868C312.372 51.7213 311.653 51.4867 311.008 51.164C310.333 50.812 309.805 50.372 309.424 49.844C309.013 49.2867 308.852 48.5973 308.94 47.776C308.969 47.1893 309.101 46.4707 309.336 45.62C309.57 44.74 309.834 43.8307 310.128 42.892C310.421 41.924 310.744 40.9853 311.096 40.076C311.418 39.1373 311.712 38.3013 311.976 37.568L314.044 32.376C314.22 31.7893 314.264 31.3347 314.176 31.012C314.088 30.66 314 30.308 313.912 29.956C313.912 29.9267 314.19 30.0733 314.748 30.396C315.305 30.7187 315.936 31.1293 316.64 31.628C317.373 32.0973 318.062 32.6107 318.708 33.168C319.382 33.7253 319.793 34.224 319.94 34.664C320.086 34.9867 320.174 35.3533 320.204 35.764C320.262 36.1453 320.189 36.5853 319.984 37.084C320.717 36.1747 321.318 35.412 321.788 34.796C322.257 34.1507 322.741 33.5493 323.24 32.992C324.061 32.1413 324.853 31.452 325.616 30.924C326.408 30.396 327.214 30.088 328.036 30C328.505 29.9413 329.121 30.0587 329.884 30.352C330.676 30.616 331.409 30.9973 332.084 31.496C332.788 31.9653 333.36 32.5227 333.8 33.168C334.269 33.784 334.43 34.4293 334.284 35.104C334.166 35.9253 333.844 36.8493 333.316 37.876C332.817 38.8733 332.26 39.9293 331.644 41.044C331.028 42.1293 330.412 43.244 329.796 44.388C329.18 45.532 328.71 46.6467 328.388 47.732C328.241 48.2307 328.241 48.524 328.388 48.612C328.534 48.7 328.74 48.6853 329.004 48.568C329.297 48.4213 329.59 48.2453 329.884 48.04C330.177 47.8053 330.382 47.6293 330.5 47.512C331.321 46.7493 332.201 45.796 333.14 44.652C334.078 43.508 335.017 42.3787 335.956 41.264L340.268 36.072C340.238 36.248 340.224 36.512 340.224 36.864C340.224 37.1867 340.15 37.5973 340.004 38.096C339.886 38.5947 339.666 39.1813 339.344 39.856C339.05 40.5013 338.581 41.2493 337.936 42.1L337.628 42.408L336.44 43.992C335.765 44.8427 335.09 45.7227 334.416 46.632C333.741 47.512 333.037 48.3333 332.304 49.096C331.512 49.9173 330.705 50.592 329.884 51.12C329.062 51.6187 328.27 51.912 327.508 52C327.009 52.0587 326.437 52 325.792 51.824C325.176 51.648 324.604 51.3693 324.076 50.988C323.548 50.6067 323.122 50.152 322.8 49.624C322.506 49.0667 322.404 48.4507 322.492 47.776ZM336.056 48.656C335.616 47.6587 335.425 46.6173 335.484 45.532C335.543 44.4173 335.792 43.332 336.232 42.276C336.643 41.1907 337.2 40.164 337.904 39.196C338.579 38.1987 339.341 37.304 340.192 36.512C340.456 35.632 340.867 34.796 341.424 34.004C341.981 33.1827 342.656 32.4787 343.448 31.892C344.24 31.276 345.135 30.792 346.132 30.44C347.159 30.088 348.244 29.9267 349.388 29.956C351.647 30.0147 353.363 30.5427 354.536 31.54C355.709 32.5373 356.399 33.7693 356.604 35.236C356.868 37.26 356.677 39.24 356.032 41.176C355.416 43.0827 354.492 44.8133 353.26 46.368C354.199 46.1627 355.255 45.7373 356.428 45.092C357.631 44.4467 358.921 43.4053 360.3 41.968L365.316 36.072C365.257 36.248 365.228 36.512 365.228 36.864C365.228 37.1867 365.155 37.5973 365.008 38.096C364.891 38.5947 364.671 39.1813 364.348 39.856C364.055 40.5013 363.585 41.2493 362.94 42.1L362.676 42.408C362.06 43.1413 361.341 43.904 360.52 44.696C359.728 45.488 358.863 46.2067 357.924 46.852C356.985 47.4973 355.973 48.04 354.888 48.48C353.832 48.8907 352.732 49.096 351.588 49.096C351.412 49.096 351.236 49.096 351.06 49.096C350.913 49.096 350.737 49.0813 350.532 49.052C349.3 50.0787 347.965 50.856 346.528 51.384C345.12 51.912 343.727 52.1467 342.348 52.088C340.999 52.0293 339.752 51.7653 338.608 51.296C337.464 50.7973 336.613 49.9173 336.056 48.656ZM344.856 40.736C345.149 41.5573 345.516 42.3493 345.956 43.112C346.396 43.8453 346.924 44.476 347.54 45.004C348.068 44.0947 348.567 43.1267 349.036 42.1C349.535 41.0733 349.96 40.076 350.312 39.108C350.664 38.1107 350.928 37.1867 351.104 36.336C351.309 35.4853 351.412 34.7813 351.412 34.224C351.441 33.3733 351.28 32.728 350.928 32.288C350.576 31.8187 350.18 31.584 349.74 31.584C348.479 31.584 347.452 31.8773 346.66 32.464C345.897 33.0507 345.311 33.8133 344.9 34.752C345.575 34.6933 346.205 34.7373 346.792 34.884C347.408 35.0307 347.907 35.2947 348.288 35.676C348.405 35.7933 348.508 35.9107 348.596 36.028C348.684 36.116 348.757 36.2333 348.816 36.38C348.669 36.468 348.523 36.556 348.376 36.644C348.229 36.732 348.083 36.8347 347.936 36.952C347.349 37.392 346.792 37.9493 346.264 38.624C345.765 39.2693 345.296 39.9733 344.856 40.736ZM345.604 47.732C344.548 47.1453 343.565 46.4267 342.656 45.576L342.524 46.28C342.436 46.632 342.363 46.9987 342.304 47.38C342.275 47.732 342.289 48.0547 342.348 48.348C342.407 48.6413 342.509 48.876 342.656 49.052C342.832 49.228 343.067 49.3013 343.36 49.272C344.064 49.2133 344.812 48.7 345.604 47.732ZM367.096 23.4C368.592 23.8987 369.736 24.4267 370.528 24.984C371.32 25.5413 371.848 26.1133 372.112 26.7C372.405 27.2573 372.493 27.8293 372.376 28.416C372.259 29.0027 372.039 29.5893 371.716 30.176C371.393 30.7333 371.012 31.2907 370.572 31.848C370.161 32.376 369.795 32.8893 369.472 33.388C369.912 33.564 370.323 33.6813 370.704 33.74C371.115 33.7693 371.481 33.784 371.804 33.784C372.185 33.784 372.581 33.74 372.992 33.652C373.403 33.564 373.813 33.4027 374.224 33.168C374.635 32.9333 375.031 32.596 375.412 32.156C375.793 31.716 376.16 31.1587 376.512 30.484C377.187 30.5427 377.891 30.7333 378.624 31.056C379.357 31.3787 379.988 31.76 380.516 32.2C381.073 32.64 381.455 33.0947 381.66 33.564C381.865 34.0333 381.792 34.444 381.44 34.796C380.531 35.676 379.563 36.7027 378.536 37.876C377.509 39.0493 376.541 40.2373 375.632 41.44C374.752 42.6427 373.989 43.8013 373.344 44.916C372.728 46.0013 372.361 46.9107 372.244 47.644C372.215 47.8493 372.185 48.084 372.156 48.348C372.156 48.5827 372.215 48.7733 372.332 48.92C372.479 49.0373 372.743 49.0373 373.124 48.92C373.535 48.8027 374.151 48.4653 374.972 47.908C375.5 47.5267 376.336 46.7493 377.48 45.576C378.653 44.3733 379.973 42.936 381.44 41.264L385.752 36.072C385.693 36.248 385.664 36.512 385.664 36.864C385.664 37.1867 385.605 37.5973 385.488 38.096C385.371 38.5947 385.151 39.1813 384.828 39.856C384.535 40.5013 384.065 41.2493 383.42 42.1C382.511 43.0973 381.557 44.1827 380.56 45.356C379.563 46.5 378.536 47.5707 377.48 48.568C376.453 49.536 375.397 50.3573 374.312 51.032C373.227 51.6773 372.156 52 371.1 52C369.34 51.9707 368.049 51.4573 367.228 50.46C366.407 49.4333 366.069 48.1427 366.216 46.588C366.363 45.0333 367.008 43.3027 368.152 41.396C369.296 39.46 370.953 37.5827 373.124 35.764C372.449 35.7347 371.716 35.72 370.924 35.72C370.161 35.72 369.237 35.5147 368.152 35.104L362.96 41.88L360.848 44.3C360.701 43.8893 360.54 43.4787 360.364 43.068C360.188 42.6573 360.247 42.1587 360.54 41.572L361.2 40.824C362.52 39.2107 363.591 37.832 364.412 36.688C365.233 35.5147 365.791 34.6347 366.084 34.048C365.292 33.52 364.779 32.9627 364.544 32.376C364.339 31.7893 364.295 31.2027 364.412 30.616C364.559 30 364.793 29.384 365.116 28.768C365.468 28.152 365.805 27.536 366.128 26.92C366.48 26.304 366.759 25.7027 366.964 25.116C367.199 24.5293 367.243 23.9573 367.096 23.4ZM394.63 43.2C394.513 43.4933 394.234 43.948 393.794 44.564C393.383 45.18 392.87 45.84 392.254 46.544C391.638 47.248 390.949 47.9667 390.186 48.7C389.453 49.4333 388.719 50.0787 387.986 50.636C387.282 51.1933 386.607 51.6333 385.962 51.956C385.317 52.2493 384.774 52.3227 384.334 52.176C383.747 52 383.205 51.8093 382.706 51.604C382.178 51.3693 381.709 51.12 381.298 50.856C380.887 50.592 380.565 50.3133 380.33 50.02C380.066 49.6973 379.919 49.3307 379.89 48.92C379.831 47.6 380.154 45.9867 380.858 44.08C381.533 42.1733 382.574 40.164 383.982 38.052C384.451 37.348 385.038 36.5413 385.742 35.632C386.446 34.7227 387.267 33.8573 388.206 33.036C389.174 32.2147 390.259 31.5253 391.462 30.968C392.694 30.4107 394.058 30.132 395.554 30.132C396.463 30.132 397.314 30.2347 398.106 30.44C398.898 30.6453 399.587 30.924 400.174 31.276C400.761 31.5987 401.245 31.98 401.626 32.42C402.007 32.8307 402.257 33.2413 402.374 33.652C402.491 34.0333 402.491 34.3853 402.374 34.708C402.257 35.0307 401.963 35.192 401.494 35.192C400.966 35.192 400.614 35.0747 400.438 34.84C400.291 34.6053 400.145 34.3413 399.998 34.048C399.851 33.7547 399.631 33.4907 399.338 33.256C399.074 32.992 398.575 32.86 397.842 32.86C397.138 32.86 396.405 33.124 395.642 33.652C394.909 34.18 394.19 34.8253 393.486 35.588C392.811 36.3213 392.195 37.084 391.638 37.876C391.081 38.668 390.641 39.3133 390.318 39.812C390.318 39.8413 390.142 40.1347 389.79 40.692C389.438 41.2493 389.042 41.9093 388.602 42.672C388.162 43.4347 387.722 44.212 387.282 45.004C386.842 45.7667 386.519 46.3827 386.314 46.852C386.138 47.204 386.167 47.4387 386.402 47.556C386.637 47.644 386.989 47.5707 387.458 47.336C387.839 47.1307 388.309 46.7933 388.866 46.324C389.423 45.8547 390.01 45.312 390.626 44.696C391.242 44.0507 391.858 43.376 392.474 42.672C393.119 41.968 393.721 41.2933 394.278 40.648C394.835 39.9733 395.334 39.3427 395.774 38.756C396.214 38.1693 396.551 37.7 396.786 37.348L398.018 34.576C398.047 34.5467 398.311 34.664 398.81 34.928C399.338 35.1627 399.925 35.5 400.57 35.94C401.215 36.3507 401.831 36.8053 402.418 37.304C403.005 37.8027 403.386 38.272 403.562 38.712C403.709 39.1227 403.621 39.5627 403.298 40.032C402.975 40.5013 402.594 41.1613 402.154 42.012C402.154 42.012 402.037 42.232 401.802 42.672C401.597 43.0827 401.347 43.596 401.054 44.212C400.761 44.7987 400.467 45.4293 400.174 46.104C399.91 46.7493 399.734 47.292 399.646 47.732C399.558 48.26 399.602 48.568 399.778 48.656C399.954 48.744 400.174 48.7293 400.438 48.612C400.702 48.4653 400.966 48.2747 401.23 48.04C401.494 47.8053 401.685 47.6293 401.802 47.512C402.623 46.7493 403.503 45.796 404.442 44.652C405.41 43.508 406.363 42.3787 407.302 41.264L411.57 36.072C411.511 36.248 411.482 36.512 411.482 36.864C411.482 37.1867 411.423 37.5973 411.306 38.096C411.189 38.5947 410.969 39.1813 410.646 39.856C410.353 40.5013 409.898 41.2493 409.282 42.1L408.93 42.408L407.786 43.992C407.111 44.8427 406.437 45.7227 405.762 46.632C405.087 47.512 404.369 48.3333 403.606 49.096C402.843 49.9173 402.037 50.6067 401.186 51.164C400.365 51.692 399.558 51.9707 398.766 52C398.209 52 397.651 51.8973 397.094 51.692C396.566 51.4573 396.082 51.1347 395.642 50.724C395.231 50.3133 394.894 49.8293 394.63 49.272C394.395 48.7147 394.278 48.1133 394.278 47.468C394.278 47.116 394.293 46.72 394.322 46.28C394.351 45.84 394.381 45.4147 394.41 45.004C394.469 44.5933 394.513 44.2267 394.542 43.904C394.601 43.5813 394.63 43.3467 394.63 43.2ZM425.074 34.752C425.309 34.1653 425.397 33.784 425.338 33.608C425.28 33.4027 425.133 33.3293 424.898 33.388C424.664 33.4467 424.385 33.5933 424.062 33.828C423.769 34.0333 423.505 34.2533 423.27 34.488C422.977 34.752 422.552 35.148 421.994 35.676C421.437 36.204 420.792 36.8493 420.058 37.612C419.354 38.3453 418.606 39.1813 417.814 40.12C417.052 41.0587 416.333 42.0707 415.658 43.156C414.984 44.212 414.382 45.3267 413.854 46.5C413.326 47.644 412.96 48.8173 412.754 50.02V50.064C412.813 50.4453 412.901 50.7973 413.018 51.12C413.165 51.4427 413.37 51.7507 413.634 52.044C412.93 52.044 412.182 51.9853 411.39 51.868C410.598 51.7213 409.88 51.4867 409.234 51.164C408.56 50.812 408.032 50.372 407.65 49.844C407.24 49.2867 407.078 48.5973 407.166 47.776C407.196 47.1893 407.328 46.4707 407.562 45.62C407.797 44.74 408.061 43.8307 408.354 42.892C408.648 41.924 408.97 40.9853 409.322 40.076C409.645 39.1373 409.938 38.3013 410.202 37.568L412.27 32.376C412.446 31.7893 412.49 31.3347 412.402 31.012C412.314 30.66 412.226 30.308 412.138 29.956C412.138 29.9267 412.417 30.0733 412.974 30.396C413.532 30.7187 414.162 31.1293 414.866 31.628C415.6 32.0973 416.289 32.6107 416.934 33.168C417.609 33.7253 418.02 34.224 418.166 34.664C418.313 34.9867 418.401 35.3533 418.43 35.764C418.489 36.1453 418.43 36.6147 418.254 37.172C418.988 36.2333 419.574 35.4413 420.014 34.796C420.484 34.1507 420.997 33.5493 421.554 32.992C422.317 32.1413 423.094 31.452 423.886 30.924C424.708 30.396 425.529 30.088 426.35 30C426.82 29.9413 427.421 30.0587 428.154 30.352C428.917 30.616 429.65 30.9973 430.354 31.496C431.058 31.9653 431.63 32.5227 432.07 33.168C432.54 33.784 432.701 34.4293 432.554 35.104C432.496 35.4267 432.408 35.764 432.29 36.116C432.202 36.4387 432.056 36.776 431.85 37.128C432.613 36.2187 433.229 35.4413 433.698 34.796C434.168 34.1507 434.666 33.5493 435.194 32.992C435.957 32.1413 436.749 31.452 437.57 30.924C438.392 30.396 439.184 30.088 439.946 30C440.416 29.9413 441.032 30.0587 441.794 30.352C442.557 30.616 443.276 30.9973 443.95 31.496C444.654 31.9653 445.226 32.5227 445.666 33.168C446.136 33.784 446.297 34.4293 446.15 35.104C446.033 35.9253 445.725 36.8493 445.226 37.876C444.728 38.8733 444.17 39.9293 443.554 41.044C442.938 42.1293 442.322 43.244 441.706 44.388C441.09 45.532 440.606 46.6467 440.254 47.732C440.108 48.2307 440.108 48.524 440.254 48.612C440.43 48.7 440.65 48.6853 440.914 48.568C441.208 48.4213 441.501 48.2453 441.794 48.04C442.088 47.8053 442.293 47.6293 442.41 47.512C443.232 46.7493 444.112 45.796 445.05 44.652C446.018 43.508 446.972 42.3787 447.91 41.264L452.178 36.072C452.12 36.248 452.09 36.512 452.09 36.864C452.09 37.1867 452.032 37.5973 451.914 38.096C451.797 38.5947 451.577 39.1813 451.254 39.856C450.961 40.5013 450.506 41.2493 449.89 42.1L449.538 42.408L448.394 43.992C447.72 44.8427 447.045 45.7227 446.37 46.632C445.696 47.512 444.977 48.3333 444.214 49.096C443.452 49.9173 442.645 50.592 441.794 51.12C440.944 51.6187 440.137 51.912 439.374 52C438.876 52.0587 438.318 52 437.702 51.824C437.086 51.648 436.514 51.3693 435.986 50.988C435.488 50.6067 435.077 50.152 434.754 49.624C434.432 49.0667 434.329 48.4507 434.446 47.776C434.534 47.1893 434.681 46.4707 434.886 45.62C435.121 44.74 435.385 43.8307 435.678 42.892C436.001 41.9533 436.324 41.0147 436.646 40.076C436.998 39.1373 437.306 38.3013 437.57 37.568L438.714 34.752C438.978 34.1653 439.081 33.784 439.022 33.608C438.964 33.4027 438.817 33.3293 438.582 33.388C438.377 33.4467 438.113 33.5933 437.79 33.828C437.468 34.0333 437.174 34.2533 436.91 34.488C436.617 34.752 436.162 35.1627 435.546 35.72C434.96 36.248 434.3 36.908 433.566 37.7C432.833 38.492 432.07 39.372 431.278 40.34C430.486 41.308 429.753 42.3347 429.078 43.42C428.404 44.476 427.817 45.576 427.318 46.72C426.849 47.864 426.556 49.008 426.438 50.152C426.497 50.4747 426.585 50.7973 426.702 51.12C426.82 51.4427 426.981 51.7507 427.186 52.044C426.482 52.044 425.734 51.9853 424.942 51.868C424.18 51.7213 423.461 51.4867 422.786 51.164C422.141 50.812 421.628 50.372 421.246 49.844C420.865 49.2867 420.718 48.5973 420.806 47.776C420.865 47.1893 420.997 46.4707 421.202 45.62C421.437 44.74 421.701 43.8307 421.994 42.892C422.317 41.924 422.64 40.9853 422.962 40.076C423.314 39.1373 423.622 38.3013 423.886 37.568L425.074 34.752ZM461.275 43.2C461.157 43.4933 460.879 43.948 460.439 44.564C460.028 45.18 459.515 45.84 458.899 46.544C458.283 47.248 457.593 47.9667 456.831 48.7C456.097 49.4333 455.364 50.0787 454.631 50.636C453.927 51.1933 453.252 51.6333 452.607 51.956C451.961 52.2493 451.419 52.3227 450.979 52.176C450.392 52 449.849 51.8093 449.351 51.604C448.823 51.3693 448.353 51.12 447.943 50.856C447.532 50.592 447.209 50.3133 446.975 50.02C446.711 49.6973 446.564 49.3307 446.535 48.92C446.476 47.6 446.799 45.9867 447.503 44.08C448.177 42.1733 449.219 40.164 450.627 38.052C451.096 37.348 451.683 36.5413 452.387 35.632C453.091 34.7227 453.912 33.8573 454.851 33.036C455.819 32.2147 456.904 31.5253 458.107 30.968C459.339 30.4107 460.703 30.132 462.199 30.132C463.108 30.132 463.959 30.2347 464.751 30.44C465.543 30.6453 466.232 30.924 466.819 31.276C467.405 31.5987 467.889 31.98 468.271 32.42C468.652 32.8307 468.901 33.2413 469.019 33.652C469.136 34.0333 469.136 34.3853 469.019 34.708C468.901 35.0307 468.608 35.192 468.139 35.192C467.611 35.192 467.259 35.0747 467.083 34.84C466.936 34.6053 466.789 34.3413 466.643 34.048C466.496 33.7547 466.276 33.4907 465.983 33.256C465.719 32.992 465.22 32.86 464.487 32.86C463.783 32.86 463.049 33.124 462.287 33.652C461.553 34.18 460.835 34.8253 460.131 35.588C459.456 36.3213 458.84 37.084 458.283 37.876C457.725 38.668 457.285 39.3133 456.963 39.812C456.963 39.8413 456.787 40.1347 456.435 40.692C456.083 41.2493 455.687 41.9093 455.247 42.672C454.807 43.4347 454.367 44.212 453.927 45.004C453.487 45.7667 453.164 46.3827 452.959 46.852C452.783 47.204 452.812 47.4387 453.047 47.556C453.281 47.644 453.633 47.5707 454.103 47.336C454.484 47.1307 454.953 46.7933 455.511 46.324C456.068 45.8547 456.655 45.312 457.271 44.696C457.887 44.0507 458.503 43.376 459.119 42.672C459.764 41.968 460.365 41.2933 460.923 40.648C461.48 39.9733 461.979 39.3427 462.419 38.756C462.859 38.1693 463.196 37.7 463.431 37.348L464.663 34.576C464.692 34.5467 464.956 34.664 465.455 34.928C465.983 35.1627 466.569 35.5 467.215 35.94C467.86 36.3507 468.476 36.8053 469.063 37.304C469.649 37.8027 470.031 38.272 470.207 38.712C470.353 39.1227 470.265 39.5627 469.943 40.032C469.62 40.5013 469.239 41.1613 468.799 42.012C468.799 42.012 468.681 42.232 468.447 42.672C468.241 43.0827 467.992 43.596 467.699 44.212C467.405 44.7987 467.112 45.4293 466.819 46.104C466.555 46.7493 466.379 47.292 466.291 47.732C466.203 48.26 466.247 48.568 466.423 48.656C466.599 48.744 466.819 48.7293 467.083 48.612C467.347 48.4653 467.611 48.2747 467.875 48.04C468.139 47.8053 468.329 47.6293 468.447 47.512C469.268 46.7493 470.148 45.796 471.087 44.652C472.055 43.508 473.008 42.3787 473.947 41.264L478.215 36.072C478.156 36.248 478.127 36.512 478.127 36.864C478.127 37.1867 478.068 37.5973 477.951 38.096C477.833 38.5947 477.613 39.1813 477.291 39.856C476.997 40.5013 476.543 41.2493 475.927 42.1L475.575 42.408L474.431 43.992C473.756 44.8427 473.081 45.7227 472.407 46.632C471.732 47.512 471.013 48.3333 470.251 49.096C469.488 49.9173 468.681 50.6067 467.831 51.164C467.009 51.692 466.203 51.9707 465.411 52C464.853 52 464.296 51.8973 463.739 51.692C463.211 51.4573 462.727 51.1347 462.287 50.724C461.876 50.3133 461.539 49.8293 461.275 49.272C461.04 48.7147 460.923 48.1133 460.923 47.468C460.923 47.116 460.937 46.72 460.967 46.28C460.996 45.84 461.025 45.4147 461.055 45.004C461.113 44.5933 461.157 44.2267 461.187 43.904C461.245 43.5813 461.275 43.3467 461.275 43.2Z" fill="white"/>
</svg>
