<svg width="807" height="398" viewBox="0 0 807 398" fill="none" xmlns="http://www.w3.org/2000/svg">
<g clip-path="url(#clip0_664_25857)">
<path d="M260.255 120.704V141.474H185.689L156.332 175.131H186.099V317.712H221.525V175.131H260.255V317.712H295.681V175.131H327.11L356.464 141.474H295.681V122.703C295.681 23.703 366.477 38.7932 366.477 38.7932V5.15412e-09C348.039 5.15412e-09 260.255 -0.0265891 260.255 120.704Z" fill="#FFFCDC"/>
<path d="M549.347 120.704C549.347 128.543 549.347 135.407 549.347 141.474H623.913L653.27 175.131H623.503V317.712H588.077V175.131H549.347V180.332V317.712H513.921V175.131H482.492L453.138 141.474H513.921V122.703C513.921 23.703 443.125 38.7931 443.125 38.7931V5.15412e-09C461.563 5.15412e-09 549.347 -0.0265891 549.347 120.704Z" fill="#FFFCDC"/>
<path d="M9.14506 355.569V397.372H0V355.569H9.14506Z" fill="#FFFCDC"/>
<path d="M24.494 366.476V370.674C26.06 367.164 28.1898 365.848 32.2612 365.848C35.518 365.848 37.8359 367.04 39.151 369.359C40.0277 370.925 40.2787 372.492 40.2787 377.13V397.372H31.6974V377.13C31.6974 373.557 31.0081 372.554 28.6909 372.554C26.812 372.554 25.6844 373.306 25.1833 374.873C24.9323 375.688 24.8703 376.753 24.8703 379.261V397.372H16.2891V366.476L24.494 366.476Z" fill="#FFFCDC"/>
<path d="M55.8204 356.698V366.476H61.4579V373.244H55.8204V384.588C55.8204 388.724 55.8832 389.225 56.5724 389.978C57.1362 390.604 58.0757 390.855 59.5789 390.855C60.3302 390.855 60.5184 390.855 61.8962 390.792V397.372C59.6417 397.875 58.3886 398 56.6979 398C52.9393 398 50.2464 396.808 48.8051 394.553C47.6782 392.735 47.4273 391.294 47.4273 385.528V373.244H43.9824V366.476H47.8657L48.555 357.325L55.8204 356.698Z" fill="#FFFCDC"/>
<path d="M72.986 383.334V384.964C72.986 389.914 74.1764 391.983 77.1202 391.983C79.7511 391.983 81.0661 390.478 81.5053 386.718L89.209 387.219C88.4578 390.792 87.643 392.484 85.9523 394.427C83.7597 396.872 80.816 398 76.9327 398C68.7898 398 64.0918 392.296 64.0918 382.331C64.0918 371.99 68.8525 365.848 76.9327 365.848C81.2543 365.848 85.0749 367.979 86.9545 371.489C88.708 374.747 89.1463 377.317 89.209 383.334L72.986 383.334ZM81.0662 378.383C81.0662 376.001 80.8787 374.747 80.4404 373.745C79.8139 372.367 78.5607 371.551 77.0575 371.551C74.3646 371.551 73.1742 373.557 73.0487 378.383H81.0662Z" fill="#FFFCDC"/>
<path d="M101.805 366.476V373.934C103.371 368.418 105.563 366.037 109.071 366.037C109.572 366.037 109.885 366.099 110.574 366.225V374.622C110.011 374.56 109.384 374.498 109.134 374.498C104.811 374.498 102.807 377.568 102.807 384.023V397.372H94.2266V366.476H101.805Z" fill="#FFFCDC"/>
<path d="M121.978 366.476V370.674C123.544 367.164 125.674 365.848 129.746 365.848C133.002 365.848 135.32 367.04 136.635 369.359C137.512 370.925 137.763 372.492 137.763 377.13V397.372H129.182V377.13C129.182 373.557 128.493 372.554 126.175 372.554C124.296 372.554 123.169 373.306 122.668 374.873C122.417 375.688 122.354 376.753 122.354 379.261V397.372H113.773V366.476L121.978 366.476Z" fill="#FFFCDC"/>
<path d="M143.782 375.501C144.659 369.233 149.106 365.848 156.247 365.848C160.13 365.848 163.324 367.04 165.267 369.17C166.769 370.736 167.208 372.931 167.208 378.194V390.479C167.271 395.492 167.271 396.057 167.709 397.372H159.754C159.316 395.869 159.316 395.618 159.316 392.672C158.313 394.364 157.812 395.054 156.998 395.806C155.432 397.185 153.24 398 150.86 398C145.786 398 142.717 394.803 142.717 389.539C142.717 385.09 144.847 381.641 148.605 380.138C151.298 379.073 154.493 378.445 158.627 378.194V377.004C158.627 372.805 157.875 371.552 155.558 371.552C153.24 371.552 152.238 372.867 151.925 376.252L143.782 375.501ZM158.627 382.582C153.303 383.208 151.612 384.65 151.612 388.411C151.612 390.917 152.614 392.297 154.493 392.297C155.621 392.297 156.623 391.669 157.437 390.353C158.313 388.975 158.627 387.345 158.627 384.087V382.582Z" fill="#FFFCDC"/>
<path d="M182.813 356.698V366.476H188.45V373.244H182.813V384.588C182.813 388.724 182.875 389.225 183.565 389.978C184.128 390.604 185.068 390.855 186.571 390.855C187.322 390.855 187.511 390.855 188.888 390.792V397.372C186.634 397.875 185.381 398 183.69 398C179.932 398 177.238 396.808 175.797 394.553C174.67 392.735 174.419 391.294 174.419 385.528V373.244H170.975V366.476H174.858L175.547 357.325L182.813 356.698Z" fill="#FFFCDC"/>
<path d="M192.4 363.906V355.382H201.169V363.906H192.4ZM201.044 366.476V397.372H192.463V366.476H201.044Z" fill="#FFFCDC"/>
<path d="M231.238 381.956C231.238 392.61 227.041 398 218.711 398C210.318 398 206.121 392.61 206.121 382.018C206.121 371.113 210.255 365.848 218.837 365.848C227.041 365.848 231.238 371.301 231.238 381.956ZM215.015 381.892C215.015 389.476 215.955 391.983 218.711 391.983C221.405 391.983 222.344 389.476 222.344 381.956C222.344 374.498 221.405 371.865 218.774 371.865C215.955 371.865 215.015 374.372 215.015 381.892Z" fill="#FFFCDC"/>
<path d="M244.461 366.476V370.674C246.027 367.164 248.157 365.848 252.228 365.848C255.485 365.848 257.803 367.04 259.118 369.359C259.995 370.925 260.245 372.492 260.245 377.13V397.372H251.664V377.13C251.664 373.557 250.975 372.554 248.658 372.554C246.779 372.554 245.651 373.306 245.15 374.873C244.899 375.688 244.836 376.753 244.836 379.261V397.372H236.256V366.476L244.461 366.476Z" fill="#FFFCDC"/>
<path d="M266.265 375.501C267.143 369.233 271.59 365.848 278.73 365.848C282.614 365.848 285.808 367.04 287.75 369.17C289.254 370.736 289.692 372.931 289.692 378.194V390.479C289.754 395.492 289.754 396.057 290.193 397.372H282.238C281.799 395.869 281.799 395.618 281.799 392.672C280.797 394.364 280.296 395.054 279.482 395.806C277.916 397.185 275.723 398 273.343 398C268.27 398 265.201 394.803 265.201 389.539C265.201 385.09 267.33 381.641 271.089 380.138C273.782 379.073 276.976 378.445 281.111 378.194V377.004C281.111 372.805 280.359 371.552 278.041 371.552C275.723 371.552 274.721 372.867 274.408 376.252L266.265 375.501ZM281.111 382.582C275.786 383.208 274.095 384.65 274.095 388.411C274.095 390.917 275.098 392.297 276.976 392.297C278.104 392.297 279.106 391.669 279.92 390.353C280.797 388.975 281.111 387.345 281.111 384.087V382.582Z" fill="#FFFCDC"/>
<path d="M304.607 355.569V397.372H296.025V355.569H304.607Z" fill="#FFFCDC"/>
<path d="M348.206 355.569V362.778H332.61V373.683H344.636V380.889H332.61V397.372H323.465V355.569H348.206Z" fill="#FFFCDC"/>
<path d="M351.346 363.906V355.382H360.114V363.906H351.346ZM359.99 366.476V397.372H351.408V366.476H359.99Z" fill="#FFFCDC"/>
<path d="M374.961 355.569V397.372H366.381V355.569H374.961Z" fill="#FFFCDC"/>
<path d="M389.56 366.476V370.674C391.064 367.29 393.319 365.848 397.014 365.848C400.835 365.848 402.651 367.164 403.654 370.674C405.22 367.29 407.475 365.848 411.295 365.848C414.552 365.848 416.933 366.976 418.123 369.17C418.937 370.736 419.187 372.554 419.187 377.192V397.372H410.606V378.07C410.606 373.432 410.168 372.554 407.851 372.554C405.282 372.554 404.656 373.87 404.656 379.386V397.372H396.075V377.819C396.012 374.56 396.012 374.434 395.762 373.87C395.386 372.993 394.571 372.554 393.319 372.554C390.625 372.554 389.936 373.996 389.936 379.386V397.372H381.355V366.476L389.56 366.476Z" fill="#FFFCDC"/>
<path d="M462.294 355.569V362.778H446.698V373.683H458.724V380.889H446.698V397.372H437.553V355.569H462.294Z" fill="#FFFCDC"/>
<path d="M472.009 383.334V384.964C472.009 389.914 473.2 391.983 476.144 391.983C478.774 391.983 480.09 390.478 480.529 386.718L488.232 387.219C487.481 390.792 486.666 392.484 484.976 394.427C482.783 396.872 479.839 398 475.956 398C467.813 398 463.115 392.296 463.115 382.331C463.115 371.99 467.876 365.848 475.956 365.848C480.278 365.848 484.098 367.979 485.978 371.489C487.731 374.747 488.17 377.317 488.232 383.334L472.009 383.334ZM480.09 378.383C480.09 376.001 479.902 374.747 479.464 373.745C478.837 372.367 477.584 371.551 476.081 371.551C473.388 371.551 472.198 373.557 472.072 378.383H480.09Z" fill="#FFFCDC"/>
<path d="M507.656 375.75C506.654 372.742 505.339 371.552 503.146 371.552C501.518 371.552 500.453 372.616 500.453 374.247C500.453 376.252 501.33 376.942 505.589 378.445C509.536 379.825 510.412 380.263 511.853 381.454C513.732 383.021 514.734 385.277 514.734 387.909C514.734 393.926 509.974 398 503.021 398C499.388 398 496.256 396.934 494.252 395.054C492.623 393.55 491.935 391.92 491.434 388.85L498.261 387.721C498.95 390.855 500.516 392.297 503.209 392.297C505.339 392.297 506.591 391.23 506.591 389.414C506.591 387.408 505.714 386.655 501.643 385.403C495.129 383.272 492.373 380.389 492.373 375.688C492.373 369.859 496.883 365.848 503.334 365.848C506.278 365.848 508.846 366.789 510.725 368.543C512.291 369.985 513.042 371.239 513.794 373.87L507.656 375.75Z" fill="#FFFCDC"/>
<path d="M528.834 356.698V366.476H534.472V373.244H528.834V384.588C528.834 388.724 528.897 389.225 529.586 389.978C530.15 390.604 531.089 390.855 532.593 390.855C533.344 390.855 533.532 390.855 534.91 390.792V397.372C532.655 397.875 531.402 398 529.712 398C525.953 398 523.26 396.808 521.819 394.553C520.692 392.735 520.441 391.294 520.441 385.528V373.244H516.996V366.476H520.879L521.569 357.325L528.834 356.698Z" fill="#FFFCDC"/>
<path d="M538.422 363.906V355.382H547.191V363.906H538.422ZM547.066 366.476V397.372H538.485V366.476H547.066Z" fill="#FFFCDC"/>
<path d="M558.343 366.476L562.601 384.713L566.924 366.476H574.064L565.608 397.372H558.781L550.074 366.476H558.343Z" fill="#FFFCDC"/>
<path d="M576.074 375.501C576.951 369.233 581.398 365.848 588.538 365.848C592.422 365.848 595.616 367.04 597.558 369.17C599.062 370.736 599.5 372.931 599.5 378.194V390.479C599.562 395.492 599.562 396.057 600.002 397.372H592.047C591.608 395.869 591.608 395.618 591.608 392.672C590.606 394.364 590.104 395.054 589.29 395.806C587.724 397.185 585.532 398 583.152 398C578.078 398 575.01 394.803 575.01 389.539C575.01 385.09 577.139 381.641 580.897 380.138C583.59 379.073 586.785 378.445 590.919 378.194V377.004C590.919 372.805 590.167 371.552 587.85 371.552C585.532 371.552 584.53 372.867 584.217 376.252L576.074 375.501ZM590.919 382.582C585.595 383.208 583.904 384.65 583.904 388.411C583.904 390.917 584.906 392.297 586.785 392.297C587.913 392.297 588.915 391.669 589.729 390.353C590.605 388.975 590.919 387.345 590.919 384.087V382.582Z" fill="#FFFCDC"/>
<path d="M614.415 355.569V397.372H605.834V355.569H614.415Z" fill="#FFFCDC"/>
<path d="M656.324 381.956C656.324 392.61 652.127 398 643.797 398C635.404 398 631.207 392.61 631.207 382.018C631.207 371.113 635.341 365.848 643.922 365.848C652.127 365.848 656.324 371.301 656.324 381.956ZM640.101 381.892C640.101 389.476 641.041 391.983 643.797 391.983C646.491 391.983 647.43 389.476 647.43 381.956C647.43 374.498 646.491 371.865 643.86 371.865C641.041 371.865 640.101 374.372 640.101 381.892Z" fill="#FFFCDC"/>
<path d="M676.5 366.476V373.244H671.051V397.372H662.783V373.244H659.275V366.476H662.783C662.908 360.772 663.284 358.954 664.912 357.074C666.792 354.818 669.046 353.94 672.805 353.94C674.12 353.94 675.122 354.004 676.876 354.254V360.96C675.999 360.898 675.498 360.834 674.934 360.834C671.552 360.834 671.051 361.649 671.051 366.476H676.5Z" fill="#FFFCDC"/>
<path d="M701.124 355.569V397.372H691.979V355.569H701.124Z" fill="#FFFCDC"/>
<path d="M716.472 366.476V370.674C718.038 367.164 720.168 365.848 724.24 365.848C727.496 365.848 729.814 367.04 731.13 369.359C732.006 370.925 732.257 372.492 732.257 377.13V397.372H723.676V377.13C723.676 373.557 722.987 372.554 720.669 372.554C718.791 372.554 717.663 373.306 717.162 374.873C716.911 375.688 716.848 376.753 716.848 379.261V397.372H708.268V366.476L716.472 366.476Z" fill="#FFFCDC"/>
<path d="M761.705 355.569V397.372H753.75V392.233C752.121 396.37 750.305 397.811 746.672 397.811C740.408 397.811 736.838 392.045 736.838 381.956C736.838 371.865 740.596 366.037 747.048 366.037C750.054 366.037 751.746 366.976 753.248 369.358V355.569L761.705 355.569ZM753.248 379.448C753.248 376.252 753.124 375.563 752.497 373.808C752.059 372.554 750.868 371.739 749.491 371.739C746.797 371.739 745.733 374.247 745.733 380.451C745.733 385.152 745.795 386.342 746.108 388.034C746.547 390.542 747.612 391.794 749.428 391.794C752.122 391.794 753.248 389.727 753.248 384.901V379.448Z" fill="#FFFCDC"/>
<path d="M767.912 363.906V355.382H776.681V363.906H767.912ZM776.556 366.476V397.372H767.975V366.476H776.556Z" fill="#FFFCDC"/>
<path d="M783.072 375.501C783.949 369.233 788.397 365.848 795.537 365.848C799.421 365.848 802.615 367.04 804.556 369.17C806.06 370.736 806.498 372.931 806.498 378.194V390.479C806.56 395.492 806.56 396.057 807 397.372H799.045C798.606 395.869 798.606 395.618 798.606 392.672C797.604 394.364 797.102 395.054 796.288 395.806C794.722 397.185 792.53 398 790.15 398C785.076 398 782.008 394.803 782.008 389.539C782.008 385.09 784.137 381.641 787.895 380.138C790.588 379.073 793.783 378.445 797.917 378.194V377.004C797.917 372.805 797.165 371.552 794.848 371.552C792.53 371.552 791.528 372.867 791.215 376.252L783.072 375.501ZM797.917 382.582C792.593 383.208 790.902 384.65 790.902 388.411C790.902 390.917 791.904 392.297 793.783 392.297C794.911 392.297 795.913 391.669 796.727 390.353C797.604 388.975 797.917 387.345 797.917 384.087V382.582Z" fill="#FFFCDC"/>
<path d="M396.687 211.463L394.462 232.295H357.113L355.683 256.149C360.927 249.629 366.013 247.084 373.801 247.084C379.999 247.084 386.675 249.47 391.443 253.286C398.594 259.011 402.409 268.712 402.409 281.752C402.409 305.288 389.218 319.123 366.649 319.123C355.683 319.123 346.623 315.625 340.107 308.627C335.021 303.22 332.796 298.291 331.684 289.226L352.822 285.728C354.57 296.064 358.543 300.199 366.649 300.199C375.072 300.199 379.84 293.997 379.84 283.024C379.84 272.529 374.755 266.008 366.331 266.008C360.291 266.008 357.272 268.235 354.57 274.277L336.293 270.779L340.107 211.463L396.687 211.463Z" fill="#FFFCDC"/>
<path d="M471.543 211.463L469.318 232.295H431.968L430.538 256.149C435.783 249.629 440.869 247.084 448.657 247.084C454.855 247.084 461.53 249.47 466.298 253.286C473.45 259.011 477.264 268.712 477.264 281.752C477.264 305.288 464.073 319.123 441.504 319.123C430.538 319.123 421.479 315.625 414.962 308.627C409.877 303.22 407.652 298.291 406.539 289.226L427.677 285.728C429.426 296.064 433.399 300.199 441.504 300.199C449.928 300.199 454.696 293.997 454.696 283.024C454.696 272.529 449.61 266.008 441.187 266.008C435.147 266.008 432.128 268.235 429.426 274.277L411.148 270.779L414.962 211.463L471.543 211.463Z" fill="#FFFCDC"/>
<path d="M480.219 205.628V211.47H484.196V214.941H480.219V224.168C480.219 227.258 480.304 227.851 480.811 228.444C481.277 228.952 481.996 229.206 483.138 229.206C483.646 229.206 484.069 229.163 484.872 229.079V232.507C483.519 232.761 482.8 232.846 481.7 232.846C479.204 232.846 477.554 232.084 476.75 230.517C476.116 229.29 475.989 228.147 475.989 224.465V214.941H473.281V211.47H476.116L476.327 206.009L480.219 205.628Z" fill="#FFFCDC"/>
<path d="M490.923 204.105V214.221C492.107 211.851 493.46 210.962 495.872 210.962C496.507 210.962 497.099 211.047 497.691 211.216C499.256 211.681 500.398 212.909 500.779 214.56C501.075 215.661 501.117 216.592 501.117 219.174V232.338H496.803V219.174C496.803 217.311 496.718 216.38 496.422 215.787C496.041 214.856 495.322 214.433 494.265 214.433C491.98 214.433 490.923 216.338 490.923 220.401V232.338H486.607V204.105L490.923 204.105Z" fill="#FFFCDC"/>
</g>
<defs>
<clipPath id="clip0_664_25857">
<rect width="807" height="398" fill="white"/>
</clipPath>
</defs>
</svg>
