<svg width="195" height="100" viewBox="0 0 195 100" fill="none" xmlns="http://www.w3.org/2000/svg">
<path fill-rule="evenodd" clip-rule="evenodd" d="M151.069 10.8717C148.782 11.1955 147.07 11.6395 145.75 12.2511C142.753 13.6396 140.519 15.7318 139.132 18.448C136.997 22.6314 136.376 28.0979 136.557 41.1461C136.649 47.761 136.705 48.7753 137.142 51.5988C137.708 55.2673 138.097 56.6518 139.116 58.6312C141.806 63.8562 147.118 66.4261 155.232 66.4284C162.597 66.4304 167.293 64.5534 170.431 60.3532C171.627 58.7524 171.708 58.5918 172.783 55.6505C173.376 54.0288 173.738 51.4373 173.852 47.99L173.957 44.8278L173.506 44.7238C173.258 44.6666 170.377 44.6423 167.103 44.6697L161.151 44.7197L161.024 47.4892C160.798 52.4509 160.427 53.9068 159.045 55.2515C158.083 56.1884 156.914 56.6465 155.487 56.6465C152.76 56.6465 150.913 54.6533 149.982 50.7054C149.652 49.3069 149.623 48.3378 149.623 38.4659C149.623 30.216 149.681 27.5187 149.872 26.7625C150.728 23.383 151.668 21.8106 153.327 20.9822C154.259 20.5166 154.472 20.4802 155.785 20.5613C159.22 20.7735 160.701 22.9756 161.035 28.3706L161.151 30.2467H167.481H173.812L173.75 28.5493C173.602 24.4304 172.653 20.7269 171.06 18.0437C168.817 14.2668 164.931 11.7474 160.27 11.0472C159.507 10.9326 158.422 10.7632 157.859 10.6709C156.34 10.4213 153.7 10.4993 151.069 10.8717ZM21.3146 11.9289C21.1326 12.2075 21.2033 65.0594 21.3861 65.1664C21.4811 65.2222 24.097 65.2275 27.1993 65.1784L32.8397 65.0891L32.8225 56.4231C32.8055 47.9427 32.4253 38.943 31.9845 36.588C31.7515 35.343 31.6738 33.0763 31.8584 32.9019C32.1332 32.6421 32.5024 33.3071 32.914 34.803C33.1438 35.6383 33.6149 37.166 33.9609 38.1979C34.3071 39.2298 34.7824 40.6771 35.0171 41.4141C35.2519 42.1512 35.5554 43.0758 35.6917 43.4689C35.8277 43.862 36.2911 45.2691 36.7212 46.5958C37.1511 47.9225 37.9127 50.2543 38.4132 51.7775C38.9136 53.3007 39.6774 55.6325 40.1104 56.9592C40.5431 58.2859 41.0176 59.7332 41.1645 60.1754C41.3115 60.6176 41.7023 61.8237 42.0328 62.8556C42.3633 63.8874 42.7356 64.8382 42.8601 64.9686C43.0402 65.1571 44.4442 65.2029 49.7569 65.1927C53.426 65.1857 56.4582 65.1512 56.4954 65.1162C56.6098 65.0079 56.5665 12.0933 56.4518 11.918C56.2813 11.6572 45.3443 11.7049 45.0661 11.9679C44.7861 12.2327 44.7604 19.61 45.0215 24.797C45.1181 26.7134 45.2882 30.2512 45.3997 32.6589C45.5112 35.0666 45.7037 38.0818 45.8275 39.3593C46.1442 42.6243 46.1351 43.4689 45.7842 43.4689C45.5 43.4689 45.1774 42.6858 44.2749 39.806C44.044 39.069 43.7363 38.2126 43.5914 37.9029C43.4463 37.5933 43.3276 37.2129 43.3276 37.0578C43.3276 36.9027 43.2051 36.4726 43.0553 36.102C42.9056 35.7316 42.3043 33.9811 41.7193 32.2122C41.134 30.4433 40.4964 28.5537 40.302 28.0132C40.1077 27.4727 39.4698 25.5832 38.8843 23.8143C38.2989 22.0454 37.7065 20.2765 37.568 19.8834C37.4295 19.4903 36.8365 17.7214 36.2503 15.9524C35.6641 14.1835 35.0787 12.5352 34.9496 12.2895L34.7147 11.8428L28.0656 11.808C24.4084 11.7889 21.3706 11.8434 21.3146 11.9289ZM61.8845 11.9679C61.5907 12.2457 61.5512 64.9163 61.8446 65.0878C62.0818 65.2264 74.4716 65.2206 74.7092 65.0817C74.8154 65.0197 74.8857 60.5708 74.8857 53.9066V42.8346L75.3109 42.684C75.5448 42.6011 79.1621 42.5357 83.3495 42.5386C88.0637 42.5418 91.0332 42.4773 91.1475 42.3692C91.2615 42.2614 91.3129 40.2824 91.2819 37.2034L91.2316 32.2122L83.3117 32.1656C77.8483 32.1334 75.3133 32.0573 75.1387 31.9202C74.7685 31.6297 74.7685 22.4311 75.1389 22.1406C75.3146 22.0027 78.0209 21.9276 83.9733 21.8953L92.5544 21.8488L92.6049 17.0463C92.6404 13.6528 92.592 12.172 92.4399 11.9986C92.1428 11.6604 62.2417 11.6302 61.8845 11.9679ZM96.286 11.8889C96.0976 12.0117 96.0589 17.471 96.097 38.5662L96.1448 65.0891L106.349 65.0805C116.125 65.0723 116.645 65.0551 118.727 64.6718C123.201 63.8479 125.363 62.9672 127.422 61.1306C129.495 59.282 130.592 57.1668 131.389 53.4817C132.294 49.2974 132.294 27.8119 131.389 23.6345C130.668 20.3036 129.633 18.1609 127.904 16.4163C125.749 14.2423 122.959 13.0893 117.876 12.2733C115.866 11.9504 114.527 11.8993 106.066 11.8217C100.817 11.7739 96.4162 11.8041 96.286 11.8889ZM109.575 21.6828C109.309 21.9342 109.278 23.7176 109.278 38.6355C109.278 53.387 109.312 55.3334 109.568 55.5344C109.782 55.7024 110.396 55.7345 111.931 55.6579C114.366 55.5365 115.579 55.1109 116.81 53.9472C118.449 52.3977 118.789 49.4734 118.808 36.7685C118.822 27.3109 118.757 26.4841 117.866 24.797C117.336 23.7921 116.243 22.7506 115.242 22.2943C113.473 21.4888 110.159 21.1313 109.575 21.6828ZM21.2249 71.0628C20.959 71.5326 20.9779 71.7155 21.326 72.0448C21.5951 72.2991 28.7729 72.3254 97.5283 72.3229C139.276 72.3212 173.546 72.2526 173.684 72.1701C173.835 72.0799 173.91 71.7782 173.873 71.4134L173.812 70.8068L97.6162 70.7619C22.4354 70.7176 21.418 70.7215 21.2249 71.0628ZM119.037 76.4473C117.897 76.7555 117.402 77.5031 117.229 79.1822C117.125 80.1924 117.096 80.2392 116.459 80.4329C116.095 80.5435 115.798 80.7145 115.798 80.8128C115.798 80.911 116.095 81.0824 116.459 81.1935L117.121 81.3956V84.8564V88.3173L116.511 88.5853C115.463 89.0457 115.902 89.2107 118.176 89.2107C119.967 89.2107 120.333 89.1653 120.333 88.9426C120.333 88.7668 120.106 88.6543 119.673 88.6155C119.311 88.5828 118.95 88.4622 118.873 88.3475C118.796 88.2326 118.731 86.6338 118.73 84.7946C118.727 81.6795 118.752 81.4381 119.089 81.2673C119.289 81.1664 119.697 81.1303 119.997 81.1871C120.356 81.2548 120.622 81.201 120.771 81.0306C121.101 80.6543 120.704 80.4034 119.668 80.3337L118.821 80.2767L118.765 79.0546C118.708 77.8152 118.837 77.4767 119.492 77.1452C119.724 77.028 119.935 77.08 120.239 77.3285C120.561 77.5932 120.746 77.6328 121.017 77.4958C122.091 76.9521 120.428 76.0714 119.037 76.4473ZM33.5622 76.9051C33.2434 77.3652 33.2475 77.3837 33.768 77.807C34.2455 78.1955 34.34 78.2135 34.7032 77.9866C34.9256 77.8478 35.1352 77.5581 35.1692 77.3428C35.3153 76.4173 34.1249 76.093 33.5622 76.9051ZM129.417 76.7158C128.986 77.1236 129.053 77.6359 129.579 77.9621C130.001 78.2234 130.078 78.2221 130.524 77.9457C131.095 77.5921 131.147 77.1436 130.664 76.7309C130.23 76.3596 129.8 76.3544 129.417 76.7158ZM152.194 76.5985C151.732 76.8756 152.111 77.3024 152.873 77.3618L153.592 77.4179L153.645 79.428C153.682 80.8008 153.633 81.4381 153.491 81.4381C153.377 81.4381 152.989 81.2259 152.629 80.9666C151.805 80.3723 150.645 80.1615 149.481 80.3947C148.253 80.6407 147.09 81.7415 146.643 83.0795C145.559 86.3338 147.496 89.4896 150.568 89.4737C151.24 89.4703 152.54 88.9423 152.906 88.5242C153.268 88.1113 153.438 88.152 153.725 88.7193C153.953 89.1694 154.074 89.2148 155.167 89.2589C156.222 89.3016 156.354 89.2703 156.297 88.9909C156.262 88.817 156.038 88.6484 155.8 88.6162C155.561 88.5842 155.294 88.3777 155.205 88.1568C155.117 87.9363 155.061 85.3092 155.083 82.3188C155.104 79.3285 155.087 76.7814 155.045 76.6585C154.956 76.3969 152.614 76.3476 152.194 76.5985ZM159.929 76.7807C159.618 77.3294 159.697 77.6553 160.219 77.9782C160.687 78.2687 160.721 78.2632 161.194 77.8158C161.667 77.3686 161.673 77.3371 161.365 76.894C160.982 76.3401 160.213 76.2795 159.929 76.7807ZM25.5812 80.3839C24.4874 80.5833 23.3803 81.3259 22.8296 82.2297C21.1992 84.9056 22.3105 88.2412 25.1479 89.1869C26.8305 89.7478 29.6943 89.2478 29.8748 88.3616C29.9602 87.942 29.3427 87.9499 28.7551 88.3762C28.0841 88.863 27.7217 88.946 26.7931 88.8256C25.779 88.6943 24.5536 87.78 24.1414 86.8475C23.7762 86.0209 23.7873 84.0367 24.163 82.9941C24.3363 82.5129 24.7365 81.936 25.1144 81.6222C25.681 81.1519 25.9111 81.0808 26.8683 81.0808C28.1688 81.0808 28.8207 81.4635 29.1558 82.4237C29.3727 83.045 29.7665 83.2326 30.0248 82.8375C30.0999 82.7228 30.1747 82.1982 30.1913 81.6717C30.2282 80.5079 29.9755 80.229 29.2227 80.6019C28.7929 80.8147 28.6287 80.8208 28.3124 80.635C27.7697 80.3162 26.5623 80.2053 25.5812 80.3839ZM43.4283 80.3988C43.016 80.4849 42.5003 80.7138 42.2824 80.9073C41.7826 81.3513 41.5509 81.3509 41.2247 80.905C41.0148 80.618 40.7136 80.5415 39.6427 80.5029C38.4291 80.4593 38.3199 80.4849 38.3199 80.8128C38.3199 81.0772 38.4671 81.1859 38.8868 81.2305C39.1986 81.2639 39.5387 81.3576 39.6427 81.4387C39.8734 81.619 39.8453 88.1993 39.6128 88.4121C39.5253 88.4922 39.1986 88.584 38.8868 88.6162C38.5363 88.6523 38.3199 88.777 38.3199 88.9426C38.3199 89.1653 38.6872 89.2107 40.493 89.2107C42.2988 89.2107 42.6662 89.1653 42.6662 88.9426C42.6662 88.7709 42.4457 88.6544 42.0526 88.6187C41.2508 88.5456 41.2049 88.3414 41.2814 85.1913L41.3434 82.6471L42.1709 81.9533C42.8607 81.3749 43.1343 81.2595 43.8155 81.2595C45.7196 81.2595 45.9732 81.7573 45.9732 85.494C45.9732 88.3741 45.9543 88.4334 44.9677 88.6566C44.6712 88.7236 44.4684 88.8733 44.5106 88.9939C44.5627 89.1426 45.2551 89.2266 46.7122 89.2612C48.6626 89.3079 48.8325 89.2857 48.7733 88.9946C48.7342 88.8035 48.4844 88.6409 48.1441 88.5853L47.5794 88.4933L47.485 85.189C47.3976 82.1382 47.3583 81.8421 46.9702 81.3277C46.3237 80.4708 44.8881 80.0943 43.4283 80.3988ZM54.2879 80.3529C52.5896 80.6816 51.2234 81.9586 50.8756 83.5417C50.5882 84.8507 50.7927 86.5266 51.3445 87.3867C52.846 89.7269 56.982 90.177 59.1539 88.2365C59.6533 87.7903 59.6917 87.5429 59.2843 87.3951C59.1121 87.3326 58.7782 87.47 58.4811 87.7255C57.5539 88.5231 56.9758 88.764 55.9877 88.764C54.9771 88.764 53.847 88.335 53.3313 87.7555C52.8585 87.2245 52.3594 85.9927 52.4288 85.5283L52.4927 85.1011L55.9886 85.0015C57.9114 84.9467 59.5059 84.8865 59.5318 84.8675C59.5577 84.8486 59.5791 84.5216 59.5791 84.141C59.5791 82.7968 58.3449 81.0077 57.1224 80.5801C56.3845 80.3219 55.0147 80.2121 54.2879 80.3529ZM66.4859 80.3906C66.0755 80.4804 65.5832 80.7127 65.392 80.9068C64.9549 81.3502 64.5509 81.3583 64.4059 80.9264C64.3184 80.6655 64.0337 80.568 63.0933 80.4769C61.7857 80.3502 61.2798 80.4483 61.2798 80.8285C61.2798 81.0567 61.5602 81.1642 62.5081 81.2995C62.8685 81.3509 62.8885 81.5096 62.9376 84.7228C62.9926 88.3244 62.9484 88.5231 62.0706 88.6194C61.7707 88.6523 61.5411 88.8013 61.5037 88.9873C61.4472 89.2696 61.6413 89.3 63.5021 89.3C64.6357 89.3 65.6191 89.2471 65.6875 89.1824C65.8799 89.0004 65.4319 88.5853 65.0428 88.5853C64.8512 88.5853 64.6066 88.4298 64.4989 88.2397C64.2782 87.8497 64.2402 85.4559 64.4279 83.7588C64.5378 82.7638 64.6372 82.5518 65.2782 81.9458C65.9007 81.3572 66.1229 81.2595 66.8376 81.2595C67.5364 81.2595 67.7503 81.3483 68.1604 81.8093C68.6447 82.3533 68.6496 82.39 68.6496 85.3884C68.6496 88.1177 68.617 88.4273 68.3189 88.5145C66.8548 88.9423 67.2322 89.2057 69.3891 89.2619C71.6195 89.32 72.098 89.1344 70.9893 88.6412L70.2559 88.3149L70.203 85.924C70.1414 83.144 70.3704 82.3024 71.3627 81.6595C72.0551 81.2109 73.2736 81.1308 73.7876 81.5003C74.3233 81.8852 74.5268 83.1754 74.4684 85.8158L74.4132 88.3173L73.7953 88.5744C72.7429 89.0123 73.1821 89.2074 75.3413 89.2616C77.2017 89.308 77.367 89.2857 77.3079 88.9948C77.2688 88.8035 77.0191 88.6409 76.6786 88.5853L76.114 88.4933L76.0133 85.2785C75.8855 81.2026 75.6818 80.7576 73.7564 80.3468C72.8338 80.1501 71.6163 80.4774 70.9766 81.0942C70.3077 81.7392 70.1667 81.7387 69.5089 81.0895C69.2149 80.7994 68.7101 80.5121 68.3868 80.4508C68.0636 80.3895 67.6717 80.3141 67.5158 80.2833C67.3599 80.2524 66.8966 80.3007 66.4859 80.3906ZM81.6886 80.4638C80.5204 80.772 80.0708 81.0978 80.2396 81.5135C80.396 81.8993 80.8456 81.8671 81.4779 81.4251C82.1017 80.9891 83.7992 80.8851 84.492 81.2405C85.0239 81.5135 85.468 82.4496 85.468 83.298C85.468 84.1208 85.2195 84.2259 84.3795 83.7572C83.0182 82.9977 80.8796 83.328 79.8458 84.4575C78.0985 86.3665 79.3677 89.067 82.1675 89.3979C83.0602 89.5033 83.3209 89.4565 84.1635 89.04L85.1326 88.5608L85.5487 88.9303C85.8779 89.2228 86.2118 89.3 87.1476 89.3C88.1718 89.3 88.3218 89.2582 88.2676 88.9873C88.2294 88.797 87.9983 88.6521 87.6771 88.6173C87.3375 88.5803 87.0915 88.4164 86.9875 88.1581C86.8987 87.9372 86.8277 86.4996 86.8297 84.9635C86.8329 82.3912 86.8003 82.1202 86.4159 81.532C86.1863 81.1809 85.7537 80.7738 85.4546 80.6275C84.6282 80.2235 82.8869 80.1477 81.6886 80.4638ZM92.5544 80.3478C91.1078 80.6918 90.3831 81.5428 90.382 82.8985C90.3811 84.042 90.9642 84.6692 92.5034 85.18C95.8056 86.276 96.5457 87.2334 94.9866 88.3927C93.9551 89.1601 91.9159 88.5858 91.2322 87.3354C90.9372 86.7962 90.4024 86.6046 90.3569 87.0219C90.2945 87.5922 90.4302 89.0468 90.5576 89.1735C90.6356 89.2514 90.8085 89.1912 90.9415 89.0395C91.2577 88.6793 91.4741 88.6916 92.3654 89.1213C93.2876 89.5659 94.3974 89.5721 95.4077 89.1383C96.4591 88.6868 96.9786 87.9524 97.0194 86.86C97.0748 85.3812 96.561 84.8748 94.2551 84.1364C92.5102 83.5776 91.704 83.0084 91.704 82.3355C91.704 81.4982 92.5066 81.0274 93.7667 81.1251C94.6558 81.1941 94.8744 81.2916 95.4356 81.8707C96.2596 82.7207 96.6173 82.6169 96.6173 81.5275C96.6173 80.6546 96.2758 80.3241 95.778 80.7147C95.5711 80.8769 95.3882 80.8648 94.9708 80.6607C94.2561 80.3112 93.2542 80.1815 92.5544 80.3478ZM108.439 80.3866C107.079 80.588 106.098 81.3193 105.34 82.6962C104.756 83.7576 104.711 83.9507 104.788 85.1011C104.926 87.1517 106.017 88.625 107.82 89.1935C110.586 90.0656 113.092 88.6593 113.809 85.8335C114.044 84.9079 114.037 84.6731 113.739 83.6178C113.044 81.1514 111.135 79.9874 108.439 80.3866ZM167.456 80.3596C166.396 80.5406 165.553 81.0295 165.632 81.4172C165.721 81.8529 166.269 81.8607 166.878 81.4353C168 80.6512 170.37 81.0259 170.585 82.0212C170.958 83.7433 170.82 84.4106 170.179 83.984C169.1 83.2651 167.403 83.1597 166.21 83.7372C165.03 84.3088 164.558 85.0794 164.555 86.4411C164.552 87.7961 164.899 88.3941 166.016 88.9525C167.262 89.5757 168.261 89.5968 169.495 89.0263L170.575 88.5267L170.846 88.9133C171.081 89.248 171.294 89.3 172.431 89.3C173.58 89.3 173.737 89.2609 173.682 88.9873C173.645 88.8013 173.415 88.6523 173.115 88.6194C172.838 88.5889 172.528 88.4682 172.427 88.3514C172.325 88.2344 172.212 86.7277 172.177 85.0035C172.105 81.5614 171.992 81.1764 170.897 80.6412C170.198 80.2992 168.584 80.1672 167.456 80.3596ZM31.8767 80.6146C31.6972 81.0568 31.9675 81.2595 32.7362 81.2595C33.2396 81.2595 33.4977 81.3508 33.5822 81.5589C33.7648 82.0085 33.675 87.914 33.4805 88.2613C33.3876 88.427 33.0361 88.5878 32.6993 88.6187C32.2961 88.6555 32.0655 88.7815 32.0243 88.9873C31.9673 89.2718 32.1776 89.3 34.3515 89.3C36.5254 89.3 36.7357 89.2718 36.6787 88.9873C36.6388 88.7892 36.4088 88.6543 36.0505 88.6189C35.7397 88.5881 35.4003 88.4597 35.2964 88.3332C35.1832 88.1954 35.1132 86.6175 35.1221 84.396C35.132 81.8898 35.0707 80.6696 34.9332 80.6303C34.8211 80.5984 34.1123 80.5208 33.3579 80.4581C32.2309 80.3645 31.9669 80.3923 31.8767 80.6146ZM127.656 80.4802C127.526 80.5321 127.419 80.683 127.419 80.8156C127.419 81.089 128.076 81.339 128.359 81.1733C128.461 81.1133 128.717 81.1512 128.927 81.2575C129.29 81.4408 129.309 81.622 129.309 84.8266C129.309 87.6876 129.263 88.2462 129.006 88.4893C128.825 88.6605 128.555 88.7318 128.335 88.6659C127.936 88.5462 127.36 88.8855 127.527 89.1415C127.646 89.3229 132.205 89.3611 132.394 89.1824C132.624 88.9652 132.102 88.5853 131.574 88.5853C131.271 88.5853 131.002 88.4663 130.936 88.3026C130.873 88.1472 130.821 86.3831 130.821 84.3822C130.821 82.2908 130.745 80.7002 130.642 80.6402C130.395 80.4956 127.945 80.3645 127.656 80.4802ZM134.081 80.4935C133.951 80.5381 133.844 80.6798 133.844 80.8085C133.844 81.0801 134.256 81.2595 134.879 81.2595C135.119 81.2595 135.355 81.3601 135.403 81.4828C135.593 81.9706 135.562 87.8641 135.368 88.2074C135.258 88.4021 134.934 88.5869 134.649 88.6182C134.337 88.6521 134.106 88.7986 134.068 88.9873C134.012 89.2705 134.213 89.3 136.207 89.3C138.201 89.3 138.401 89.2705 138.345 88.9873C138.307 88.7986 138.076 88.6521 137.764 88.6182C137.479 88.5869 137.172 88.4261 137.081 88.2608C136.851 87.8398 136.831 84.7809 137.05 83.493C137.204 82.5847 137.339 82.3321 137.932 81.8402C138.529 81.3447 138.775 81.2595 139.612 81.2595C140.393 81.2595 140.695 81.3493 141.097 81.7015L141.601 82.1434L141.549 85.3182L141.498 88.4927L140.933 88.5851C140.598 88.64 140.343 88.8038 140.305 88.9887C140.248 89.2703 140.452 89.3 142.443 89.3C144.437 89.3 144.637 89.2705 144.581 88.9873C144.543 88.7986 144.312 88.6521 144 88.6182C143.715 88.5869 143.404 88.4238 143.309 88.2554C143.213 88.0871 143.126 86.6775 143.114 85.1229C143.084 81.0365 142.764 80.4992 140.297 80.3957C138.996 80.3412 138.781 80.3813 138.135 80.7972C137.27 81.3552 137.293 81.3538 136.882 80.8744C136.621 80.5692 136.321 80.4815 135.435 80.4509C134.82 80.4299 134.211 80.449 134.081 80.4935ZM158.059 80.6042C157.748 80.9582 158.133 81.2184 159.074 81.2907L159.828 81.3488L159.879 84.7634C159.936 88.5508 159.899 88.6746 158.712 88.6746C158.318 88.6746 158.127 88.7622 158.127 88.9426C158.127 89.1644 158.546 89.2192 160.551 89.2607C162.79 89.307 162.971 89.2864 162.912 88.9927C162.87 88.7809 162.644 88.6559 162.236 88.6187C161.861 88.5844 161.546 88.425 161.423 88.2074C161.296 87.9831 161.236 86.5375 161.261 84.2845C161.283 82.3222 161.26 80.6777 161.209 80.6298C161.159 80.5821 160.479 80.5004 159.698 80.4483C158.616 80.3763 158.226 80.4134 158.059 80.6042ZM108.7 81.0786C107.132 81.5057 106.633 82.4295 106.633 84.9072C106.633 86.1574 106.721 86.831 106.943 87.2729C107.946 89.2729 110.676 89.2866 111.754 87.297C112.305 86.2796 112.264 83.3952 111.685 82.4377C110.991 81.2913 109.842 80.7679 108.7 81.0786ZM53.727 81.4703C53.2593 81.7708 52.9706 82.1623 52.7192 82.8374C52.1775 84.2918 52.186 84.297 55.1092 84.297C58.0465 84.297 58.1332 84.2568 57.8551 83.0232C57.5792 81.8003 56.8411 81.2118 55.4691 81.121C54.5615 81.061 54.2743 81.1187 53.727 81.4703ZM149.907 81.2069C149.454 81.3636 148.762 82.019 148.438 82.5996C148.222 82.9844 148.137 83.6395 148.135 84.9224C148.133 86.4801 148.188 86.796 148.571 87.3869C149.021 88.0836 150.151 88.764 150.858 88.764C151.612 88.764 152.84 87.9152 153.274 87.0939C153.841 86.0189 153.859 83.71 153.308 82.6878C152.645 81.4601 151.11 80.7913 149.907 81.2069ZM81.3528 84.823C80.8123 85.2897 80.7438 85.4563 80.7438 86.302C80.7438 87.3724 81.0474 87.9113 81.8797 88.3183C83.3909 89.0572 85.4784 87.9469 85.4614 86.4136C85.447 85.1334 84.4427 84.3 82.9118 84.2983C82.1232 84.2972 81.8583 84.3863 81.3528 84.823ZM167.071 84.5706C166.503 84.8622 165.969 85.7427 165.969 86.3881C165.969 87.4278 167.175 88.5831 168.261 88.5846C168.931 88.5855 169.96 88.162 170.397 87.706C170.753 87.3336 170.867 86.1583 170.617 85.4273C170.293 84.4798 168.222 83.9795 167.071 84.5706Z" fill="#F1F0F1"/>
</svg>
