<svg width="92" height="50" viewBox="0 0 92 50" fill="none" xmlns="http://www.w3.org/2000/svg">
<path fill-rule="evenodd" clip-rule="evenodd" d="M78.2297 0.218715C76.8539 0.423767 75.8235 0.704978 75.0293 1.09233C73.2263 1.97173 71.8821 3.29675 71.0479 5.01706C69.7632 7.66655 69.39 11.1287 69.4987 19.3925C69.5538 23.5819 69.588 24.2243 69.8504 26.0126C70.1913 28.3359 70.4252 29.2128 71.0383 30.4664C72.6566 33.7755 75.8526 35.4032 80.7342 35.4046C85.1657 35.4059 87.9911 34.2171 89.8789 31.557C90.5985 30.5431 90.6468 30.4414 91.294 28.5786C91.6508 27.5516 91.8683 25.9103 91.937 23.727L92 21.7242L91.729 21.6584C91.5799 21.6222 89.8464 21.6068 87.8767 21.6241L84.2953 21.6558L84.2193 23.4098C84.083 26.5522 83.8597 27.4743 83.0287 28.3259C82.4496 28.9193 81.7466 29.2094 80.8877 29.2094C79.2471 29.2094 78.136 27.9471 77.5756 25.4467C77.3771 24.561 77.36 23.9472 77.36 17.6951C77.36 12.4701 77.3945 10.7618 77.5098 10.2829C78.0246 8.14251 78.59 7.14667 79.5882 6.62205C80.149 6.32715 80.2774 6.30406 81.0669 6.35544C83.134 6.48988 84.0246 7.8845 84.2255 11.3013L84.2953 12.4896H88.1041H91.9128L91.8758 11.4145C91.7864 8.80587 91.2156 6.46034 90.257 4.76097C88.9076 2.36893 86.57 0.773327 83.7653 0.329841C83.3064 0.257303 82.6538 0.150025 82.3151 0.0915192C81.4008 -0.0665697 79.8126 -0.0171165 78.2297 0.218715ZM0.163439 0.888301C0.0539521 1.06472 0.0964732 34.5376 0.206415 34.6054C0.263603 34.6407 1.83746 34.6441 3.70397 34.6129L7.09749 34.5564L7.08714 29.068C7.07691 23.697 6.84816 17.9972 6.58291 16.5057C6.44273 15.7172 6.396 14.2816 6.50708 14.1712C6.67239 14.0066 6.89455 14.4278 7.14217 15.3752C7.28042 15.9043 7.56386 16.8718 7.77203 17.5253C7.98032 18.1788 8.26626 19.0955 8.40746 19.5623C8.54879 20.0291 8.73138 20.6147 8.81335 20.8636C8.89521 21.1126 9.17398 22.0037 9.43275 22.844C9.6914 23.6842 10.1496 25.161 10.4508 26.1257C10.7518 27.0904 11.2114 28.5672 11.4718 29.4074C11.7322 30.2477 12.0177 31.1643 12.106 31.4444C12.1945 31.7245 12.4296 32.4883 12.6284 33.1418C12.8273 33.7953 13.0513 34.3975 13.1262 34.4801C13.2345 34.5995 14.0793 34.6285 17.2757 34.622C19.4831 34.6176 21.3075 34.5957 21.3299 34.5736C21.3986 34.505 21.3726 0.992412 21.3036 0.881399C21.201 0.716181 14.6208 0.746394 14.4535 0.912971C14.285 1.08068 14.2695 5.75296 14.4266 9.03808C14.4847 10.2518 14.587 12.4924 14.6541 14.0173C14.7212 15.5421 14.8371 17.4518 14.9115 18.2609C15.1021 20.3287 15.0966 20.8636 14.8855 20.8636C14.7145 20.8636 14.5204 20.3676 13.9774 18.5438C13.8385 18.077 13.6534 17.5346 13.5662 17.3385C13.4789 17.1424 13.4075 16.9014 13.4075 16.8032C13.4075 16.705 13.3338 16.4326 13.2436 16.1979C13.1536 15.9633 12.7918 14.8547 12.4398 13.7344C12.0877 12.614 11.7041 11.4173 11.5871 11.075C11.4703 10.7327 11.0864 9.536 10.7342 8.41569C10.382 7.29537 10.0255 6.17506 9.94221 5.9261C9.85887 5.67714 9.5021 4.55682 9.14943 3.43651C8.79675 2.31619 8.44453 1.27226 8.36688 1.11666L8.22555 0.833757L4.22514 0.811689C2.02483 0.799581 0.197092 0.834096 0.163439 0.888301ZM24.5722 0.912971C24.3954 1.08894 24.3716 34.4469 24.5482 34.5556C24.6909 34.6434 32.1452 34.6397 32.2881 34.5517C32.352 34.5125 32.3943 31.6948 32.3943 27.4742V20.4619L32.6501 20.3665C32.7908 20.314 34.9672 20.2726 37.4865 20.2744C40.3228 20.2764 42.1094 20.2356 42.1782 20.1671C42.2467 20.0989 42.2777 18.8455 42.259 16.8954L42.2288 13.7344L37.4638 13.7048C34.1768 13.6844 32.6516 13.6362 32.5465 13.5494C32.3238 13.3654 32.3238 7.53969 32.5466 7.35569C32.6524 7.26832 34.2806 7.2208 37.8618 7.20031L43.0246 7.17089L43.055 4.12929C43.0763 1.9801 43.0472 1.0422 42.9557 0.932434C42.777 0.718217 24.7871 0.699092 24.5722 0.912971ZM45.2697 0.862952C45.1564 0.940695 45.1331 4.39828 45.156 17.7585L45.1848 34.5564L51.3242 34.5509C57.2055 34.5457 57.5187 34.5349 58.7712 34.2921C61.4627 33.7703 62.7641 33.2126 64.0029 32.0494C65.2497 30.8786 65.9096 29.5389 66.3892 27.2051C66.9337 24.555 66.9339 10.9475 66.3895 8.30184C65.9556 6.19226 65.3331 4.83521 64.2927 3.73028C62.9962 2.35343 61.3173 1.62318 58.2595 1.10637C57.0498 0.901881 56.2443 0.869517 51.1537 0.820404C47.9959 0.790076 45.3481 0.8092 45.2697 0.862952ZM53.2651 7.06576C53.1052 7.22499 53.0865 8.35446 53.0865 17.8025C53.0865 27.1451 53.1065 28.3778 53.2606 28.5051C53.3894 28.6115 53.759 28.6318 54.6827 28.5833C56.1472 28.5064 56.8775 28.2369 57.618 27.4999C58.6039 26.5185 58.8086 24.6665 58.82 16.62C58.8286 10.6302 58.7895 10.1066 58.2534 9.03808C57.9341 8.40165 57.277 7.74203 56.6743 7.45301C55.6104 6.94287 53.6162 6.71643 53.2651 7.06576ZM0.109434 38.3397C-0.0505324 38.6373 -0.0391631 38.7531 0.17026 38.9617C0.33216 39.1227 4.65069 39.1394 46.0171 39.1378C71.1348 39.1368 91.7532 39.0933 91.8359 39.041C91.9266 38.9839 91.9718 38.7929 91.9496 38.5618L91.9128 38.1776L46.07 38.1492C0.837757 38.1211 0.225629 38.1236 0.109434 38.3397ZM58.958 41.7499C58.2717 41.9451 57.9743 42.4186 57.87 43.482C57.8072 44.1218 57.7899 44.1515 57.4068 44.2741C57.188 44.3442 57.0089 44.4525 57.0089 44.5147C57.0089 44.577 57.188 44.6855 57.4068 44.7559L57.8048 44.8839V47.0757V49.2676L57.438 49.4373C56.8077 49.7289 57.0718 49.8334 58.4395 49.8334C59.5176 49.8334 59.7376 49.8046 59.7376 49.6636C59.7376 49.5523 59.6009 49.481 59.3406 49.4564C59.1224 49.4357 58.9057 49.3593 58.8592 49.2867C58.8127 49.2139 58.7739 48.2013 58.7729 47.0366C58.7713 45.0637 58.7861 44.9108 58.9892 44.8026C59.1092 44.7387 59.3551 44.7158 59.5356 44.7518C59.7512 44.7947 59.9112 44.7606 60.0011 44.6527C60.1998 44.4143 59.9608 44.2555 59.3373 44.2113L58.828 44.1752L58.7941 43.4012C58.7598 42.6163 58.8373 42.4019 59.2314 42.1919C59.3709 42.1177 59.4983 42.1506 59.6807 42.308C59.8749 42.4756 59.9861 42.5008 60.1491 42.414C60.7955 42.0696 59.795 41.5118 58.958 41.7499ZM7.53214 42.0398C7.34034 42.3312 7.34284 42.343 7.65595 42.6111C7.94325 42.8571 8.0001 42.8685 8.21862 42.7248C8.35244 42.6369 8.47852 42.4535 8.49899 42.3171C8.58687 41.7309 7.87072 41.5255 7.53214 42.0398ZM65.2029 41.92C64.9436 42.1782 64.9837 42.5027 65.3006 42.7093C65.5543 42.8748 65.6006 42.874 65.869 42.6989C66.2125 42.475 66.2435 42.1909 65.9533 41.9295C65.6922 41.6944 65.433 41.6911 65.2029 41.92ZM78.9067 41.8457C78.6284 42.0212 78.8567 42.2915 79.3149 42.3291L79.7476 42.3646L79.7798 43.6377C79.8017 44.5071 79.7723 44.9108 79.6869 44.9108C79.6181 44.9108 79.3848 44.7764 79.1684 44.6122C78.6727 44.2358 77.9745 44.1022 77.2742 44.2499C76.5354 44.4057 75.8355 45.1029 75.5671 45.9503C74.9144 48.0113 76.0798 50.01 77.9285 50C78.3329 49.9978 79.115 49.6634 79.3351 49.3986C79.5526 49.1371 79.6552 49.1629 79.828 49.5222C79.965 49.8072 80.0379 49.836 80.6956 49.8639C81.3302 49.891 81.4092 49.8712 81.3754 49.6942C81.3542 49.5841 81.2196 49.4773 81.0762 49.4569C80.9326 49.4366 80.7719 49.3058 80.7184 49.166C80.665 49.0263 80.6318 47.3625 80.6445 45.4686C80.6573 43.5747 80.647 41.9615 80.6218 41.8837C80.5681 41.718 79.159 41.6868 78.9067 41.8457ZM83.5603 41.9611C83.3735 42.3086 83.4209 42.515 83.7346 42.7195C84.0166 42.9035 84.0366 42.9 84.3211 42.6166C84.6058 42.3334 84.6094 42.3135 84.4245 42.0328C84.1936 41.682 83.7311 41.6437 83.5603 41.9611ZM2.73041 44.2431C2.07235 44.3694 1.40622 44.8397 1.07492 45.4121C0.093972 47.1068 0.762603 49.2194 2.46971 49.8183C3.48204 50.1736 5.20506 49.8569 5.31364 49.2956C5.36503 49.0299 4.99348 49.0349 4.64 49.3049C4.23628 49.6132 4.01821 49.6658 3.45953 49.5895C2.84945 49.5063 2.11214 48.9273 1.86418 48.3367C1.64441 47.8132 1.65112 46.5565 1.87714 45.8962C1.9814 45.5915 2.2222 45.2261 2.44959 45.0274C2.79044 44.7295 2.92892 44.6845 3.50478 44.6845C4.28721 44.6845 4.67946 44.9269 4.88103 45.535C5.01155 45.9285 5.24849 46.0473 5.40391 45.7971C5.44905 45.7244 5.49407 45.3922 5.50407 45.0587C5.52624 44.3217 5.37424 44.145 4.92128 44.3812C4.66274 44.516 4.56394 44.5198 4.37362 44.4021C4.04709 44.2002 3.32071 44.13 2.73041 44.2431ZM13.4681 44.2525C13.22 44.3071 12.9097 44.452 12.7786 44.5746C12.4779 44.8558 12.3385 44.8556 12.1423 44.5731C12.016 44.3914 11.8348 44.3429 11.1905 44.3185C10.4603 44.2909 10.3946 44.3071 10.3946 44.5147C10.3946 44.6822 10.4832 44.751 10.7357 44.7793C10.9233 44.8005 11.1279 44.8598 11.1905 44.9111C11.3293 45.0253 11.3123 49.1929 11.1725 49.3277C11.1198 49.3784 10.9233 49.4365 10.7357 49.4569C10.5248 49.4798 10.3946 49.5587 10.3946 49.6636C10.3946 49.8046 10.6156 49.8334 11.7021 49.8334C12.7885 49.8334 13.0095 49.8046 13.0095 49.6636C13.0095 49.5549 12.8769 49.4811 12.6404 49.4585C12.158 49.4122 12.1304 49.2828 12.1764 47.2878L12.2137 45.6765L12.7116 45.237C13.1265 44.8707 13.2912 44.7976 13.701 44.7976C14.8466 44.7976 14.9992 45.1129 14.9992 47.4795C14.9992 49.3036 14.9878 49.3411 14.3942 49.4825C14.2158 49.5249 14.0938 49.6197 14.1192 49.6961C14.1506 49.7903 14.5671 49.8435 15.4438 49.8654C16.6173 49.895 16.7195 49.8809 16.6839 49.6966C16.6604 49.5755 16.5101 49.4725 16.3053 49.4373L15.9656 49.379L15.9087 47.2863C15.8562 45.3542 15.8326 45.1667 15.599 44.8409C15.2101 44.2981 14.3464 44.0597 13.4681 44.2525ZM20.0017 44.2234C18.9799 44.4317 18.1579 45.2404 17.9487 46.2431C17.7758 47.0721 17.8988 48.1334 18.2308 48.6782C19.1342 50.1603 21.6226 50.4454 22.9293 49.2164C23.2298 48.9338 23.2529 48.7771 23.0077 48.6835C22.9042 48.6439 22.7033 48.7309 22.5246 48.8928C21.9667 49.3979 21.6189 49.5505 21.0244 49.5505C20.4163 49.5505 19.7364 49.2788 19.4262 48.9118C19.1417 48.5755 18.8415 47.7953 18.8832 47.5012L18.9216 47.2306L21.0249 47.1676C22.1818 47.1329 23.1411 47.0947 23.1567 47.0827C23.1723 47.0707 23.1851 46.8636 23.1851 46.6226C23.1851 45.7713 22.4426 44.6382 21.7071 44.3674C21.2631 44.2039 20.439 44.1343 20.0017 44.2234ZM27.3406 44.2473C27.0937 44.3042 26.7975 44.4514 26.6824 44.5742C26.4195 44.8551 26.1764 44.8602 26.0892 44.5867C26.0365 44.4215 25.8652 44.3597 25.2995 44.302C24.5127 44.2217 24.2084 44.2839 24.2084 44.5247C24.2084 44.6692 24.3771 44.7373 24.9474 44.823C25.1642 44.8556 25.1762 44.9561 25.2058 46.9911C25.2389 49.2721 25.2123 49.3979 24.6842 49.4589C24.5037 49.4798 24.3656 49.5741 24.3431 49.6919C24.3091 49.8707 24.4258 49.89 25.5454 49.89C26.2274 49.89 26.8191 49.8565 26.8603 49.8155C26.976 49.7002 26.7064 49.4373 26.4723 49.4373C26.357 49.4373 26.2099 49.3389 26.1451 49.2185C26.0123 48.9714 25.9895 47.4554 26.1024 46.3806C26.1685 45.7503 26.2283 45.6161 26.614 45.2323C26.9885 44.8595 27.1222 44.7976 27.5522 44.7976C27.9726 44.7976 28.1013 44.8539 28.348 45.1458C28.6394 45.4904 28.6424 45.5136 28.6424 47.4126C28.6424 49.1412 28.6227 49.3373 28.4434 49.3925C27.5625 49.6634 27.7896 49.8302 29.0873 49.8659C30.4292 49.9026 30.7171 49.7851 30.05 49.4727L29.6088 49.2661L29.577 47.7519C29.5399 45.9912 29.6777 45.4582 30.2747 45.051C30.6913 44.7668 31.4244 44.7162 31.7336 44.9502C32.0559 45.1939 32.1784 46.0111 32.1432 47.6833L32.11 49.2676L31.7383 49.4304C31.1051 49.7078 31.3693 49.8313 32.6684 49.8656C33.7877 49.8951 33.8872 49.8809 33.8516 49.6967C33.8281 49.5755 33.6779 49.4725 33.473 49.4373L33.1333 49.379L33.0727 47.343C32.9958 44.7616 32.8733 44.4798 31.7148 44.2196C31.1598 44.095 30.4273 44.3023 30.0424 44.693C29.6399 45.1015 29.5551 45.1011 29.1594 44.69C28.9825 44.5062 28.6788 44.3243 28.4843 44.2855C28.2898 44.2466 28.054 44.1989 27.9602 44.1794C27.8664 44.1598 27.5877 44.1904 27.3406 44.2473ZM36.4872 44.2937C35.7844 44.4889 35.5139 44.6952 35.6154 44.9585C35.7096 45.2029 35.9801 45.1825 36.3605 44.9025C36.7358 44.6264 37.7571 44.5606 38.1739 44.7856C38.4939 44.9585 38.7611 45.5514 38.7611 46.0887C38.7611 46.6098 38.6116 46.6764 38.1062 46.3795C37.2872 45.8985 36.0005 46.1077 35.3785 46.823C34.3273 48.0321 35.0909 49.7424 36.7753 49.952C37.3124 50.0187 37.4693 49.9891 37.9763 49.7253L38.5593 49.4218L38.8097 49.6558C39.0077 49.8411 39.2086 49.89 39.7716 49.89C40.3878 49.89 40.4781 49.8635 40.4455 49.6919C40.4225 49.5714 40.2835 49.4796 40.0902 49.4576C39.8859 49.4342 39.7379 49.3304 39.6753 49.1667C39.6219 49.0269 39.5791 48.1164 39.5804 47.1435C39.5823 45.5144 39.5627 45.3427 39.3314 44.9702C39.1933 44.7478 38.933 44.4901 38.753 44.3974C38.2559 44.1415 37.2082 44.0935 36.4872 44.2937ZM43.0246 44.2203C42.1543 44.4381 41.7183 44.9771 41.7176 45.8357C41.717 46.5599 42.0679 46.9571 42.9939 47.2807C44.9807 47.9748 45.4259 48.5811 44.488 49.3153C43.8673 49.8014 42.6404 49.4377 42.2291 48.6457C42.0516 48.3042 41.7299 48.1829 41.7025 48.4471C41.665 48.8084 41.7466 49.7296 41.8232 49.8098C41.8702 49.8592 41.9742 49.8211 42.0542 49.725C42.2445 49.4968 42.3746 49.5047 42.9109 49.7768C43.4657 50.0584 44.1335 50.0623 44.7413 49.7876C45.3739 49.5016 45.6864 49.0365 45.711 48.3446C45.7443 47.4081 45.4351 47.0874 44.0479 46.6197C42.998 46.2658 42.513 45.9053 42.513 45.4791C42.513 44.9488 42.9959 44.6506 43.754 44.7125C44.2889 44.7562 44.4204 44.818 44.7581 45.1848C45.2538 45.7231 45.469 45.6573 45.469 44.9674C45.469 44.4146 45.2636 44.2052 44.9641 44.4526C44.8396 44.5553 44.7296 44.5476 44.4784 44.4184C44.0484 44.1971 43.4456 44.1149 43.0246 44.2203ZM52.5817 44.2448C51.7632 44.3724 51.1728 44.8355 50.7169 45.7076C50.3655 46.3798 50.3387 46.5021 50.3851 47.2306C50.4678 48.5294 51.1245 49.4624 52.2093 49.8225C53.873 50.3749 55.3811 49.4842 55.8124 47.6945C55.9537 47.1083 55.9493 46.9596 55.7703 46.2913C55.3522 44.7292 54.2035 43.992 52.5817 44.2448ZM88.0889 44.2277C87.4514 44.3424 86.9442 44.652 86.9917 44.8976C87.045 45.1734 87.3749 45.1784 87.7412 44.909C88.4159 44.4124 89.842 44.6497 89.9717 45.28C90.1961 46.3707 90.113 46.7934 89.7274 46.5231C89.078 46.0679 88.0571 46.0011 87.3394 46.3669C86.6293 46.7289 86.3455 47.2169 86.3435 48.0794C86.3416 48.9375 86.5508 49.3162 87.2226 49.6699C87.9721 50.0646 88.5734 50.0779 89.3155 49.7166L89.9652 49.4002L90.1286 49.6451C90.27 49.857 90.3982 49.89 91.0823 49.89C91.7735 49.89 91.8679 49.8652 91.8349 49.6919C91.8124 49.5741 91.6743 49.4798 91.4938 49.4589C91.3269 49.4396 91.1405 49.3632 91.0794 49.2892C91.0184 49.2151 90.9506 48.2609 90.929 47.1688C90.8857 44.9889 90.8177 44.745 90.1593 44.4061C89.7385 44.1895 88.7676 44.1059 88.0889 44.2277ZM6.51811 44.3892C6.4101 44.6693 6.57268 44.7976 7.03518 44.7976C7.33806 44.7976 7.49337 44.8555 7.54419 44.9873C7.65402 45.272 7.60001 49.0122 7.48302 49.2322C7.42709 49.3371 7.21562 49.4389 7.01301 49.4585C6.77039 49.4818 6.63169 49.5616 6.6069 49.6919C6.57257 49.8721 6.69911 49.89 8.00704 49.89C9.31497 49.89 9.44151 49.8721 9.40717 49.6919C9.38318 49.5664 9.24482 49.481 9.02925 49.4586C8.84223 49.4391 8.63803 49.3578 8.5755 49.2776C8.5074 49.1904 8.46533 48.1911 8.47068 46.7841C8.47659 45.1969 8.43975 44.4241 8.35698 44.3992C8.28956 44.3789 7.8631 44.3298 7.40924 44.2901C6.73117 44.2308 6.57234 44.2484 6.51811 44.3892ZM64.1432 44.3041C64.0651 44.3369 64.0011 44.4326 64.0011 44.5165C64.0011 44.6897 64.3958 44.848 64.5661 44.7431C64.628 44.7051 64.7819 44.7291 64.9082 44.7964C65.1263 44.9125 65.138 45.0272 65.138 47.0568C65.138 48.8688 65.1101 49.2225 64.9555 49.3765C64.8465 49.485 64.684 49.5301 64.5521 49.4884C64.3119 49.4125 63.9651 49.6274 64.0659 49.7896C64.1371 49.9044 66.8802 49.9287 66.994 49.8155C67.1323 49.6779 66.8185 49.4373 66.5006 49.4373C66.3182 49.4373 66.1565 49.362 66.1165 49.2583C66.0786 49.1598 66.0475 48.0426 66.0475 46.7754C66.0475 45.4508 66.0018 44.4434 65.9401 44.4054C65.7913 44.3139 64.3175 44.2308 64.1432 44.3041ZM68.0088 44.3125C67.9306 44.3408 67.8666 44.4305 67.8666 44.512C67.8666 44.684 68.1144 44.7976 68.4891 44.7976C68.6336 44.7976 68.7754 44.8613 68.8041 44.9391C68.9185 45.248 68.9001 48.9806 68.7831 49.198C68.7168 49.3213 68.5223 49.4383 68.3509 49.4581C68.1628 49.4796 68.0241 49.5724 68.0014 49.6919C67.9672 49.8713 68.0881 49.89 69.2878 49.89C70.4875 49.89 70.6084 49.8713 70.5742 49.6919C70.5515 49.5724 70.4128 49.4796 70.2248 49.4581C70.0533 49.4383 69.8684 49.3365 69.814 49.2318C69.6755 48.9652 69.6633 47.0278 69.7951 46.2122C69.888 45.637 69.9692 45.4769 70.3258 45.1654C70.6851 44.8516 70.8334 44.7976 71.3367 44.7976C71.8064 44.7976 71.9881 44.8545 72.2299 45.0776L72.5333 45.3574L72.5023 47.3681L72.4712 49.3787L72.1315 49.4372C71.9298 49.4719 71.7763 49.5757 71.7537 49.6928C71.7191 49.8712 71.842 49.89 73.0397 49.89C74.2394 49.89 74.3602 49.8713 74.3261 49.6919C74.3034 49.5724 74.1647 49.4796 73.9766 49.4581C73.8052 49.4383 73.618 49.335 73.5607 49.2284C73.5033 49.1218 73.4508 48.2291 73.4439 47.2444C73.4257 44.6564 73.2331 44.3161 71.749 44.2506C70.9663 44.2161 70.8364 44.2414 70.4482 44.5049C69.9273 44.8583 69.9413 44.8574 69.6944 44.5538C69.537 44.3605 69.3566 44.3049 68.8234 44.2856C68.4535 44.2722 68.087 44.2843 68.0088 44.3125ZM82.4352 44.3827C82.2482 44.6068 82.4797 44.7716 83.0462 44.8174L83.4995 44.8542L83.5303 47.0168C83.5645 49.4155 83.5422 49.4939 82.8279 49.4939C82.5911 49.4939 82.4762 49.5493 82.4762 49.6636C82.4762 49.8041 82.7283 49.8388 83.9348 49.8651C85.2815 49.8944 85.3904 49.8814 85.3551 49.6953C85.3295 49.5612 85.1936 49.482 84.9483 49.4585C84.7226 49.4368 84.533 49.3358 84.4589 49.198C84.3825 49.056 84.3467 48.1404 84.3618 46.7135C84.375 45.4707 84.3609 44.4292 84.3305 44.3988C84.3001 44.3686 83.8909 44.3169 83.4213 44.2839C82.7705 44.2383 82.5359 44.2618 82.4352 44.3827ZM52.7388 44.6831C51.7949 44.9536 51.4948 45.5386 51.4948 47.1079C51.4948 47.8997 51.5479 48.3263 51.6814 48.6061C52.2852 49.8728 53.9276 49.8815 54.5759 48.6214C54.9074 47.9771 54.8826 46.1503 54.5343 45.5438C54.1171 44.8178 53.4256 44.4863 52.7388 44.6831ZM19.6643 44.9312C19.3829 45.1215 19.2091 45.3694 19.0579 45.797C18.732 46.7181 18.7371 46.7214 20.4958 46.7214C22.2631 46.7214 22.3152 46.6959 22.1479 45.9147C21.9819 45.1402 21.5378 44.7674 20.7124 44.7099C20.1663 44.6719 19.9935 44.7085 19.6643 44.9312ZM77.5306 44.7644C77.2578 44.8636 76.8418 45.2787 76.6465 45.6464C76.517 45.8901 76.4657 46.305 76.4645 47.1175C76.4631 48.104 76.4967 48.3041 76.7267 48.6783C76.9977 49.1196 77.6776 49.5505 78.1027 49.5505C78.5565 49.5505 79.2952 49.013 79.5561 48.4927C79.8978 47.812 79.9085 46.3497 79.5767 45.7023C79.1781 44.9247 78.2541 44.5011 77.5306 44.7644ZM36.2852 47.0546C35.96 47.3501 35.9188 47.4556 35.9188 47.9912C35.9188 48.6692 36.1015 49.0105 36.6022 49.2682C37.5114 49.7362 38.7674 49.033 38.7571 48.0619C38.7485 47.2511 38.1442 46.7233 37.2232 46.7222C36.7487 46.7215 36.5893 46.778 36.2852 47.0546ZM87.8571 46.8947C87.5156 47.0793 87.1945 47.637 87.1945 48.0457C87.1945 48.7042 87.9198 49.436 88.5734 49.4369C88.9762 49.4374 89.5956 49.1692 89.8582 48.8804C90.0726 48.6446 90.1409 47.9002 89.9906 47.4373C89.7957 46.8372 88.5497 46.5203 87.8571 46.8947Z" fill="black"/>
</svg>
